<?xml version="1.0" encoding="UTF-8" standalone="no"?>
<!DOCTYPE svg PUBLIC "-//W3C//DTD SVG 1.1//EN" "http://www.w3.org/Graphics/SVG/1.1/DTD/svg11.dtd">
<svg width="100%" height="100%" viewBox="0 0 3300 2550" version="1.1" xmlns="http://www.w3.org/2000/svg" xmlns:xlink="http://www.w3.org/1999/xlink" xml:space="preserve" xmlns:serif="http://www.serif.com/" style="fill-rule:evenodd;clip-rule:evenodd;stroke-linejoin:round;stroke-miterlimit:2;">
    <g transform="matrix(2.2693,0,0,2.2693,-11592,-361.86)">
        <path d="M5574.75,235.394C5571.12,365.818 5527.07,481.18 5473.28,597.984C5455.85,635.844 5439.9,674.83 5416.91,709.779C5383.88,760.014 5342.61,804.033 5304.14,850.035C5218.26,952.722 5075.55,1077.26 5138.6,1225.88L5148.04,1224.3C5258.12,1185.32 5361.85,1199.05 5475.77,1204.02C5540.41,1206.84 5605.17,1202.64 5669.84,1205.72C5750.9,1209.58 5831.18,1219.62 5912.48,1221.03C5984.08,1222.28 6058.45,1227.41 6127.85,1206.39L6126.84,1202.06C6077.09,1061.55 6140.76,994.435 6211.99,881.448C6237.18,841.498 6261.81,800.676 6290.51,763.117C6328.59,713.304 6371.69,667.09 6405.65,614.189C6447.61,548.814 6478.75,473.031 6503.25,399.745C6521.87,344.034 6553.38,276.327 6543.16,216.192L6543.33,217.508C6542.51,213.838 6541.67,210.168 6540.87,206.49L6549.81,202.455C6479.23,195.794 6408.01,219.201 6337.16,218.717C6191.94,217.724 6047.43,203.308 5902.38,204.735C5795.08,205.791 5690.43,228.272 5582.84,225.282" style="fill:rgb(199,234,238);"/>
        <path d="M6539.85,205.239L6540.87,210.015C6539.21,210.015 6537.78,208.856 6537.43,207.232C6538.22,210.92 6539.06,214.602 6539.89,218.283C6539.92,218.388 6539.94,218.491 6539.98,218.592C6549.18,277.728 6518.17,343.977 6499.9,398.627C6475.49,471.642 6444.49,547.152 6402.68,612.284C6368.78,665.105 6325.73,711.239 6287.71,760.977C6258.94,798.619 6234.26,839.529 6209.01,879.568C6137.15,993.542 6073.36,1061.38 6123.45,1203.05L6123.66,1203.96C6055.52,1223.78 5982.69,1218.73 5912.54,1217.51C5831.27,1216.1 5751.03,1206.06 5670,1202.2C5605.33,1199.12 5540.57,1203.32 5475.93,1200.5C5361.63,1195.52 5257.58,1181.87 5147.15,1220.87L5140.78,1221.94C5111.27,1149.78 5131.03,1083.43 5168.52,1022.58C5206.96,960.178 5264,903.522 5306.84,852.297C5345.4,806.191 5386.75,762.064 5419.86,711.715C5442.94,676.619 5458.98,637.478 5476.48,599.458C5530.47,482.217 5574.63,366.405 5578.27,235.492C5578.32,233.547 5576.79,231.924 5574.84,231.87C5572.9,231.816 5571.28,233.351 5571.22,235.296C5567.61,365.231 5523.66,480.144 5470.08,596.509C5452.72,634.21 5436.85,673.04 5413.97,707.842C5381.01,757.964 5339.82,801.875 5301.43,847.773C5258.39,899.236 5201.14,956.191 5162.52,1018.88C5123.38,1082.41 5103.33,1151.78 5135.35,1227.25C5135.9,1228.56 5137.18,1229.4 5138.6,1229.4C5138.6,1229.4 5138.61,1229.45 5148.62,1227.78C5148.82,1227.74 5149.02,1227.69 5149.22,1227.62C5258.85,1188.81 5362.16,1202.6 5475.62,1207.54C5540.25,1210.36 5605.01,1206.16 5669.67,1209.24C5750.77,1213.11 5831.08,1223.14 5912.42,1224.56C5984.15,1225.8 6058.64,1230.86 6128.2,1209.97C6129.25,1210.09 6132.33,1210.07 6131.28,1205.59C6131.27,1205.55 6131.18,1205.16 6130.27,1201.25C6130.24,1201.12 6130.2,1201 6130.16,1200.88C6080.87,1061.66 6144.39,995.279 6214.98,883.328C6240.11,843.468 6264.67,802.732 6293.31,765.258C6331.44,715.368 6374.61,669.076 6408.61,616.093C6450.73,550.476 6482,474.42 6506.59,400.863C6525.38,344.659 6556.94,276.307 6546.64,215.646C6546.54,214.906 6546.39,214.47 6546.21,214.265L6545.53,211.244L6544.93,208.528L6551.26,205.667C6552.72,205.009 6553.55,203.453 6553.29,201.875C6553.02,200.298 6551.73,199.095 6550.14,198.945C6479.46,192.275 6408.14,215.677 6337.18,215.192C6191.94,214.198 6047.42,199.783 5902.35,201.21C5795.09,202.265 5690.48,224.747 5582.93,221.758C5580.99,221.704 5579.37,223.239 5579.31,225.184C5579.26,227.129 5580.79,228.752 5582.74,228.806C5690.38,231.797 5795.07,209.317 5902.41,208.26C6047.45,206.833 6191.93,221.249 6337.13,222.242C6404.66,222.704 6472.53,201.395 6539.85,205.239ZM6544.03,217.22L6540.94,217.768L6543.16,219.717L6543.28,219.331C6543.43,218.873 6543.7,218.065 6544.03,217.22Z"/>
    </g>
</svg>
