<?xml version="1.0" encoding="UTF-8" standalone="no"?>
<!DOCTYPE svg PUBLIC "-//W3C//DTD SVG 1.1//EN" "http://www.w3.org/Graphics/SVG/1.1/DTD/svg11.dtd">
<svg width="100%" height="100%" viewBox="0 0 3300 2550" version="1.1" xmlns="http://www.w3.org/2000/svg" xmlns:xlink="http://www.w3.org/1999/xlink" xml:space="preserve" xmlns:serif="http://www.serif.com/" style="fill-rule:evenodd;clip-rule:evenodd;stroke-linejoin:round;stroke-miterlimit:2;">
    <rect id="QuestionMark" x="0" y="0" width="3300" height="2550" style="fill:none;"/>
    <g id="QuestionMark1" serif:id="QuestionMark">
        <g transform="matrix(1.21773,0,0,1.21773,-251.229,-229.813)">
            <g transform="matrix(1,0,0,1,-3485.71,-5388.17)">
                <path d="M4317.5,6471.12C4170.95,6252.88 4212.18,5897.32 4417.77,5727.09C4599.46,5576.66 4990.35,5529.23 5148.11,5736.3C5404.23,6072.51 5130.48,6311.61 5168.23,6654C5187.38,6827.72 5378.94,7075.23 5246.96,7230.56C5078.71,7428.57 4874.46,7151.63 4816.84,7000.36C4796.49,6946.95 4789.52,6886.05 4789.11,6829.15C4788.58,6757.57 4807.28,6689.65 4835.47,6624.23C4904.12,6464.96 5152.52,6129.49 4948.21,5982.67C4794.34,5872.1 4543.58,5970.8 4513.01,6157.89C4494.46,6271.4 4555.65,6384.15 4521.74,6498.79C4511.89,6532.06 4492.64,6559.19 4458.23,6569.6C4354.35,6601.01 4309.09,6490.97 4283.64,6412.43" style="fill:rgb(238,204,77);"/>
                <path d="M4277.11,6413.07C4277.15,6413.53 4277.24,6413.99 4277.39,6414.46C4290.35,6454.45 4308.47,6502.4 4336.45,6536.42C4365.57,6571.81 4405.11,6592.53 4460.13,6575.89C4496.79,6564.8 4517.55,6536.11 4528.04,6500.65C4545.28,6442.37 4538.51,6384.57 4529.63,6326.91C4520.99,6270.89 4510.33,6215.02 4519.49,6158.95C4534.4,6067.7 4603.17,5998.16 4686.81,5964.76C4770.51,5931.34 4869.27,5934.04 4944.38,5988.01C5023.74,6045.04 5032.18,6131.56 5010.16,6224.54C4976.25,6367.78 4870.52,6526.31 4829.44,6621.63C4800.88,6687.89 4782.01,6756.7 4782.54,6829.2C4782.96,6886.86 4790.07,6948.57 4810.7,7002.7C4839.84,7079.2 4906.11,7187.45 4986.31,7251.57C5035.5,7290.89 5089.95,7313.58 5144.33,7303.64C5180.66,7297 5217.11,7275.83 5251.97,7234.81C5306.16,7171.03 5307.68,7092.19 5288.17,7009.04C5259.73,6887.78 5186.22,6757.29 5174.76,6653.28C5155.97,6482.86 5214.92,6338.18 5246.48,6194.24C5278.56,6047.93 5282.91,5902.41 5153.33,5732.32C5089.15,5648.07 4987.14,5605.02 4875.87,5593.74C4710.02,5576.94 4523.76,5630.81 4413.58,5722.03C4224,5879 4172.49,6191.71 4277.11,6413.07ZM4315.59,6477.4C4324.25,6495.74 4334.43,6513.28 4346.6,6528.07C4372.45,6559.49 4407.48,6578.08 4456.33,6563.31C4488.48,6553.59 4506.24,6528.02 4515.44,6496.92C4532.11,6440.57 4525.23,6384.67 4516.64,6328.92C4507.8,6271.53 4497.14,6214.27 4506.53,6156.83C4522.19,6060.98 4594.08,5987.64 4681.94,5952.56C4769.73,5917.5 4873.28,5920.73 4952.04,5977.34C5036.12,6037.76 5046.27,6129.06 5022.95,6227.57C4988.86,6371.56 4882.8,6531.02 4841.51,6626.83C4813.67,6691.41 4795.16,6758.45 4795.68,6829.11C4796.09,6885.24 4802.9,6945.33 4822.98,6998.02C4851.46,7072.79 4916.13,7178.65 4994.52,7241.31C5040.49,7278.06 5091.14,7300.01 5141.97,7290.71C5175.79,7284.53 5209.51,7264.49 5241.95,7226.3C5306.45,7150.39 5291.05,7051.91 5258.03,6951.22C5224.09,6847.76 5171.32,6741.95 5161.7,6654.72C5142.74,6482.74 5201.79,6336.68 5233.64,6191.42C5264.97,6048.54 5269.43,5906.39 5142.88,5740.28C5080.86,5658.87 4982.06,5617.71 4874.54,5606.81C4712.2,5590.36 4529.81,5642.86 4421.96,5732.15C4218.78,5900.38 4178.13,6251.78 4322.95,6467.46C4324.98,6470.47 4324.17,6474.56 4321.16,6476.58C4319.46,6477.72 4317.41,6477.96 4315.59,6477.4Z"/>
            </g>
            <g transform="matrix(1,0,0,1,-3485.71,-5388.17)">
                <path d="M5139.65,7455.71C5186.28,7418.23 5362.68,7263.91 5422.62,7273.42C5533.6,7291.03 5617.69,7548.39 5530.12,7625.89C5425.56,7718.42 5098.38,7574.79 5138.25,7459.31" style="fill:rgb(238,204,77);"/>
                <path d="M5133.1,7455.23C5132.65,7455.79 5132.29,7456.44 5132.04,7457.16C5125.07,7477.34 5128.17,7498.33 5139.09,7518.9C5154.54,7548.01 5186.04,7576.44 5225.47,7600.11C5283.79,7635.13 5359.4,7659.88 5424.31,7661.92C5468.78,7663.33 5508.27,7654 5534.48,7630.81C5553.02,7614.4 5564.45,7590.46 5569.68,7562.37C5577.26,7521.63 5571.8,7472.05 5557.09,7425.23C5542.4,7378.46 5518.49,7334.49 5489.52,7304.81C5469.55,7284.36 5447.12,7270.66 5423.65,7266.94C5415.65,7265.67 5405.77,7266.87 5394.52,7270.31C5378.93,7275.07 5360.43,7284.12 5340.54,7295.86C5264.9,7340.49 5168.3,7424.26 5135.53,7450.59C5134.06,7451.78 5133.23,7453.48 5133.1,7455.23ZM5144.78,7460.01C5144.73,7460.49 5144.62,7460.98 5144.46,7461.45C5138.67,7478.23 5141.61,7495.64 5150.69,7512.74C5165.23,7540.13 5195.14,7566.58 5232.23,7588.85C5288.7,7622.75 5361.88,7646.81 5424.73,7648.79C5465.44,7650.08 5501.78,7642.2 5525.77,7620.97C5542.25,7606.38 5552.11,7584.94 5556.76,7559.96C5564,7521.1 5558.59,7473.82 5544.56,7429.17C5530.51,7384.46 5507.81,7342.35 5480.12,7313.99C5462.32,7295.76 5442.51,7283.23 5421.59,7279.91C5415.2,7278.9 5407.34,7280.13 5398.35,7282.88C5383.58,7287.39 5366.08,7296.05 5347.22,7307.18C5272.9,7351.03 5178.24,7432.99 5144.78,7460.01Z"/>
            </g>
        </g>
    </g>
</svg>
