<?xml version="1.0" encoding="UTF-8" standalone="no"?>
<!DOCTYPE svg PUBLIC "-//W3C//DTD SVG 1.1//EN" "http://www.w3.org/Graphics/SVG/1.1/DTD/svg11.dtd">
<svg width="100%" height="100%" viewBox="0 0 3300 2550" version="1.1" xmlns="http://www.w3.org/2000/svg" xmlns:xlink="http://www.w3.org/1999/xlink" xml:space="preserve" xmlns:serif="http://www.serif.com/" style="fill-rule:evenodd;clip-rule:evenodd;stroke-linejoin:round;stroke-miterlimit:2;">
    <g id="Rock" transform="matrix(1.06183,0,0,1.06183,225.135,-332.216)">
        <g id="K">
            <path d="M1809.63,693.056C1799.72,645.587 1784.67,607.386 1763.42,564.158L1764.61,565.665C1773.34,544.927 1784.92,523.951 1797.8,505.512L1800.14,502.89C1758.17,498.92 1719.98,500.05 1678.48,489.333L1672.45,491.786C1650.91,501.355 1629.69,511.167 1607.7,519.668L1609.73,519.668C1612.7,546.31 1614.22,573.719 1619.66,600.004L1625.9,604.605C1640.74,615.72 1656.27,626.031 1670.14,638.394L1662.63,641.106C1669.29,666.883 1674.45,692.887 1679.91,718.93L1679.79,731.03C1641.81,793.889 1630.78,872.327 1619.32,943.459L1623.36,945.481C1642.63,965.816 1660.94,987.014 1676.68,1010.25L1684.25,1007.51C1665.55,1047.29 1653.51,1091.38 1641.56,1133.56L1645.61,1133.56C1691.08,1136.09 1735.66,1147.89 1781.14,1149.4L1786.07,1144.96C1798.76,1112.15 1823.16,1080.88 1844.8,1053.49L1847.31,1048.24C1834.44,1000.73 1810.2,949.511 1782.83,908.759L1777.98,907.141C1785.74,903.367 1793.4,899.378 1800.99,895.27L1805.48,895.816C1840.79,937.068 1860.56,987.71 1884.13,1035.86L1889.61,1041.42C1924.19,1051.22 1957.45,1063.48 1990.78,1076.9L1993.96,1075.8C2000.25,1071.58 2054.61,1039.23 2055.88,1034.95C2056.64,1032.43 2047.71,1020.57 2046.5,1018.38L2047.48,1022.03C1998.46,959.241 1943.73,914.01 1880.71,865.482L1879.28,863.959C1868.37,843.886 1858.35,823.331 1848.36,802.79L1850.38,800.768C1889.05,768.571 1933.74,750.713 1981.18,735.466L1983.24,730.098C1972.21,705.453 1960.19,681.892 1945.43,659.207C2003.77,603.986 2068.78,546.553 2139.84,508.553L2132.36,503.738C2109.37,478.498 2079.41,460.235 2054.63,436.753L2054.16,437.251C2014.89,463.104 1977.09,486.492 1931.27,499.445L1929.25,499.445C1928.26,517.208 1925.83,534.898 1923.67,552.547L1926.87,559.574C1898.67,576.148 1870.01,590.975 1840.27,604.605L1838.25,608.649C1839.53,631.672 1840.64,654.852 1843.03,677.79L1847.74,682.404C1818.13,694.75 1787.79,705.709 1757.35,715.831" style="fill:rgb(225,21,49);"/>
            <path d="M2049.32,431.418C2011.22,456.486 1974.5,479.222 1930.14,491.931C1929.85,491.917 1929.56,491.911 1929.25,491.911C1925.25,491.911 1921.95,495.034 1921.73,499.026C1920.75,516.624 1918.33,534.149 1916.19,551.633C1916.03,553.01 1916.24,554.406 1916.82,555.668L1917.19,556.492C1891.1,571.571 1864.57,585.177 1837.13,597.755L1840.27,612.139C1840.27,612.139 1833.53,601.239 1833.53,601.239C1833.53,601.239 1833.33,601.64 1831.51,605.28C1830.92,606.453 1830.65,607.758 1830.72,609.068C1832.01,632.211 1833.13,655.513 1835.54,678.571C1835.56,678.793 1835.6,679.012 1835.64,679.23C1829.13,681.871 1822.59,684.445 1816.03,686.958C1806.39,642.783 1792.24,606.32 1772.68,565.953C1781.01,546.696 1791.78,527.336 1803.72,510.195C1803.72,510.19 1805.76,507.906 1805.76,507.906L1805.75,507.907C1806.87,506.661 1807.58,505.039 1807.66,503.245C1807.85,499.227 1804.85,495.768 1800.85,495.389C1759.29,491.458 1721.46,492.651 1680.37,482.038L1678.48,496.867C1678.48,496.867 1675.64,482.356 1675.64,482.356C1675.64,482.356 1675.04,482.599 1669.61,484.806C1669.54,484.836 1669.46,484.868 1669.39,484.901C1647.97,494.42 1626.86,504.184 1604.99,512.64C1601.6,513.949 1599.63,517.483 1600.3,521.05C1600.62,522.775 1601.51,524.271 1602.76,525.355C1605.44,550.694 1607.13,576.612 1612.28,601.53C1612.67,603.409 1613.74,605.004 1615.2,606.075L1615.2,606.074C1615.2,606.074 1621.41,610.654 1621.41,610.654C1633.06,619.379 1645.15,627.594 1656.5,636.733C1655.25,638.489 1654.76,640.761 1655.34,642.99C1661.9,668.387 1667,694.007 1672.37,719.668L1672.27,728.911C1634.66,792.28 1623.38,870.873 1611.88,942.26C1611.53,944.44 1612.15,946.664 1613.58,948.344C1614.25,949.128 1615.06,949.757 1615.96,950.202L1615.95,950.2L1618.8,951.626C1637.46,971.37 1655.18,991.946 1670.45,1014.47C1670.9,1015.14 1671.45,1015.73 1672.08,1016.21C1656.6,1052.16 1645.77,1090.99 1635.18,1128.44C1635.03,1128.75 1634.94,1129.08 1634.9,1129.42L1634.31,1131.5C1633.67,1133.77 1634.13,1136.22 1635.55,1138.1C1636.98,1139.98 1639.2,1141.09 1641.56,1141.09L1645.39,1141.09C1690.85,1143.65 1735.42,1155.42 1780.89,1156.93C1780.97,1156.94 1781.06,1156.94 1781.14,1156.94C1781.14,1156.94 1782.17,1158.62 1786.19,1155C1786.23,1154.96 1786.67,1154.56 1791.11,1150.56C1791.99,1149.77 1792.67,1148.78 1793.1,1147.68C1805.1,1116.63 1827.9,1087.06 1848.55,1060.9C1849.49,1060.22 1850.54,1058.96 1851.6,1056.74C1851.62,1056.69 1851.85,1056.22 1854.11,1051.49C1854.88,1049.87 1855.05,1048.02 1854.58,1046.28C1841.93,999.579 1818.48,949.351 1791.8,908.645C1795.2,906.899 1798.58,905.118 1801.95,903.311C1835.47,943.599 1854.56,992.597 1877.36,1039.18L1884.13,1043.4C1884.13,1043.4 1878.77,1041.16 1878.77,1041.16C1878.77,1041.16 1879.31,1041.71 1884.25,1046.71C1885.16,1047.64 1886.3,1048.32 1887.56,1048.67C1921.88,1058.39 1954.89,1070.57 1987.97,1083.89C1988.86,1084.25 1989.82,1084.43 1990.78,1084.43C1990.78,1084.43 1990.9,1084.83 1996.42,1082.92C1997.04,1082.71 1997.62,1082.42 1998.16,1082.06C2003.21,1078.66 2039.13,1057.2 2053.95,1046.56C2057.64,1043.91 2060.2,1041.71 2061.27,1040.42C2062.34,1039.14 2062.85,1037.96 2063.1,1037.11C2063.56,1035.58 2063.68,1032.77 2062.21,1029.43C2060.35,1025.22 2055.06,1017.87 2053.43,1015.29C2052.49,1012.57 2051.48,1012.51 2050.53,1013.73C2001.96,952.453 1947.86,907.693 1885.72,859.83C1885.64,859.752 1885.56,859.672 1885.48,859.595C1875.68,841.522 1866.61,823.062 1857.61,804.58C1894.44,774.684 1936.76,757.747 1981.59,743.249C1982.68,743.797 1985.74,744.59 1988.21,738.166C1988.23,738.117 1988.42,737.634 1990.28,732.803C1991,730.931 1990.94,728.85 1990.12,727.02C1979.78,703.929 1968.58,681.781 1955.13,660.401C2011.83,606.955 2074.74,551.907 2143.39,515.197C2145.75,513.937 2147.26,511.525 2147.37,508.856C2147.48,506.187 2146.16,503.661 2143.92,502.216L2137.25,497.926C2114.23,472.928 2084.48,454.662 2059.81,431.285C2056.85,428.472 2052.19,428.547 2049.32,431.418ZM2053.96,446.39C2016.45,470.959 1979.92,492.973 1936.39,505.807C1935.29,521.034 1933.28,536.211 1931.41,551.357C1931.41,551.357 1933.73,556.445 1933.73,556.445C1937.51,564.762 1932.28,566.629 1929.06,567.023C1901.95,582.885 1874.4,597.155 1845.88,610.31C1847.06,631.628 1848.13,653.069 1850.25,674.315C1850.25,674.315 1853.01,677.018 1853.01,677.018C1862.98,686.785 1847.74,689.938 1847.74,689.938L1850.64,689.357C1820.86,701.776 1790.34,712.8 1759.73,722.98C1755.79,724.293 1751.52,722.155 1750.2,718.209C1748.89,714.263 1751.03,709.994 1754.98,708.682C1770.63,703.476 1786.26,698.048 1801.77,692.321C1792,646.551 1777.28,609.42 1756.66,567.483C1754.96,564.024 1756.14,559.839 1759.4,557.784C1759.58,557.673 1759.76,557.571 1759.94,557.478C1767.25,540.973 1776.24,524.46 1786.16,509.276C1749.71,506.536 1715.6,506.318 1679.03,497.243L1675.4,498.72C1656.19,507.256 1637.23,515.978 1617.75,523.801C1620.26,547.691 1621.86,572.106 1626.47,595.666L1630.37,598.539C1630.39,598.551 1630.4,598.562 1630.42,598.574C1645.43,609.817 1661.13,620.265 1675.15,632.771C1677.49,634.851 1678.3,638.156 1677.18,641.077C1676.38,643.178 1674.71,644.767 1672.66,645.488L1672.69,645.483C1672.69,645.483 1671.61,645.873 1671.61,645.873C1677.51,669.582 1682.27,693.467 1687.29,717.385C1687.4,717.928 1687.45,718.477 1687.44,719.021L1687.44,719.021C1687.44,719.021 1687.43,720.219 1687.32,731.109C1687.31,732.455 1686.93,733.774 1686.23,734.926C1649.71,795.388 1638.63,870.507 1627.62,939.266C1628.06,939.566 1628.46,939.912 1628.83,940.298C1647.04,959.511 1664.39,979.491 1679.59,1001.19L1681.69,1000.43C1684.56,999.392 1687.77,1000.19 1689.82,1002.44C1691.87,1004.69 1692.36,1007.96 1691.07,1010.72C1673.9,1047.24 1662.43,1087.43 1651.42,1126.38C1693.96,1129.41 1735.78,1139.92 1778.37,1141.76L1779.71,1140.56C1792.72,1107.94 1816.78,1076.81 1838.36,1049.49L1839.3,1047.53C1826.69,1002.36 1803.82,954.045 1777.99,915.067C1777.29,914.847 1776.5,914.59 1775.6,914.289C1772.69,913.32 1770.66,910.69 1770.46,907.634C1770.26,904.578 1771.93,901.705 1774.68,900.366C1781.62,896.995 1788.47,893.45 1795.25,889.801C1795.87,888.209 1797.78,887.292 1801.9,887.792C1801.94,887.797 1802.35,887.846 1806.39,888.337C1808.26,888.564 1809.98,889.485 1811.21,890.917C1846.66,932.342 1866.75,983.063 1890.36,1031.45L1893.58,1034.72C1926.8,1044.23 1958.83,1055.98 1990.88,1068.82C1999.11,1063.58 2034.99,1042.13 2047.02,1032.97C2046.72,1032.43 2046.4,1031.89 2046.1,1031.41C2045.58,1030.59 2045.04,1029.76 2044.51,1028.95C2043.37,1028.47 2042.34,1027.7 2041.54,1026.67C1992.92,964.396 1938.62,919.578 1876.12,871.451C1875.8,871.209 1875.51,870.943 1875.24,870.655C1873.94,869.285 1873.8,869.134 1873.8,869.134C1873.8,869.134 1879.28,871.493 1879.28,871.493L1872.65,867.556C1861.69,847.383 1851.62,826.728 1841.58,806.086C1842.84,808.679 1845.47,810.325 1848.36,810.325C1848.36,810.325 1843.03,797.461 1843.03,797.461C1843.03,797.461 1843.23,797.261 1845.05,795.441C1845.21,795.279 1845.38,795.125 1845.56,794.978C1883.87,763.082 1927.92,744.891 1974.76,729.624C1964.33,706.622 1952.95,684.576 1939.11,663.316C1937.13,660.267 1937.61,656.236 1940.25,653.735C1996.17,600.804 2058.21,545.905 2125.77,507.701C2104.43,484.67 2077.29,467.452 2053.96,446.39ZM2047.91,1020.14L2042.49,1022.84L2046.5,1025.91L2046.68,1025.03C2046.91,1023.98 2047.34,1022.1 2047.91,1020.14ZM1795.05,890.629C1793.65,892.422 1793.1,894.807 1793.68,897.12C1794.46,900.172 1797.03,902.389 1800.1,902.751L1800.99,902.805L1800.41,902.085C1798.84,900.061 1794.62,894.228 1795.05,890.629Z"/>
        </g>
        <g id="C">
            <path d="M1350.87,543.935C1358.25,536.148 1365.68,528.414 1373.32,520.873L1375.14,519.668C1411.71,510.224 1447.89,500.812 1483.8,489.076L1492.43,493.378C1507.45,534.708 1511.53,578.109 1524.3,619.836L1530.86,616.738C1555.26,617.417 1579.6,617.159 1603.94,614.975L1604.41,617.788C1589.64,636.584 1574.47,654.989 1559.17,673.363L1559.17,675.385C1622.64,662.9 1682.44,639.443 1744.16,620.912L1745.22,622.805C1737.63,652.176 1729.25,681.512 1720.69,710.616L1719.24,708.793C1663.55,734.183 1597.03,737.097 1536.92,742.121C1536.1,756.98 1536.6,771.946 1535.61,786.772L1528.8,788.673C1481.66,753.365 1432.61,721.227 1387.27,683.474L1388.49,690.06C1385.35,709.573 1353.39,826.539 1354.17,831.608C1355.99,843.456 1377.59,860.119 1386.21,867.772L1385.25,867.504C1403.57,879.804 1420.68,893.543 1437.72,907.531L1438.98,914.116C1419,933.017 1398.54,951.3 1377.16,968.619L1383.23,968.619C1400.23,977.734 1417.32,986.798 1433.85,996.769L1433.78,996.932C1450.01,978.356 1466.27,959.811 1482.44,941.184L1484.34,940.307C1514.52,942.83 1544.36,946.319 1574.24,951.183L1579.39,950.419C1585.08,957.809 1590.43,965.439 1595.74,973.108L1593.55,978.731C1590.48,1006.2 1584.63,1033.22 1580.32,1060.49L1580.67,1062.7C1549.94,1077.91 1525.76,1101.62 1500.52,1124.34L1495.21,1130.12C1460.66,1105.81 1427.97,1079.37 1389.29,1061.64L1389.29,1059.62C1390.96,1089.58 1390.57,1119.23 1387.18,1149.06L1384.82,1144.66C1340.03,1159.57 1293.7,1168.59 1247.73,1178.94L1249.57,1173.15C1246.58,1139.33 1246.93,1105.56 1249.75,1071.76L1247.04,1081.74C1210.42,999.53 1189.38,922.366 1145.68,840.837L1146.61,839.48C1175.2,737.817 1185.69,629.686 1202.47,525.575L1200.51,525.575C1247.39,528.184 1294.7,534.138 1340.03,546.587" style="fill:rgb(225,21,49);"/>
            <path d="M1480.88,482.101C1445.31,493.703 1409.47,503.02 1373.25,512.373C1372.44,512.582 1371.68,512.924 1370.98,513.385C1369.34,514.469 1369.16,514.589 1369.16,514.589C1369.16,514.589 1373.32,528.407 1373.32,528.407C1370.26,528.407 1367.51,526.561 1366.35,523.735C1365.19,520.908 1365.85,517.66 1368.02,515.513C1360.33,523.112 1352.84,530.905 1345.4,538.753C1344.94,539.242 1344.55,539.778 1344.25,540.345C1343.58,539.895 1342.84,539.546 1342.02,539.322C1296.7,526.873 1249.41,520.827 1202.53,518.145C1201.92,518.077 1201.25,518.041 1200.51,518.041C1196.43,518.041 1193.09,521.288 1192.98,525.366C1192.93,526.949 1193.38,528.433 1194.19,529.67C1178,631.451 1167.47,736.928 1139.69,836.254L1139.47,836.578C1137.88,838.9 1137.71,841.916 1139.04,844.397C1182.65,925.754 1203.62,1002.77 1240.15,1084.81C1240.42,1085.4 1240.75,1085.94 1241.14,1086.43C1239.39,1115.05 1239.48,1143.65 1241.94,1172.3L1240.55,1176.66C1239.73,1179.23 1240.36,1182.04 1242.18,1184.03C1244.01,1186.02 1246.75,1186.88 1249.39,1186.29C1293.58,1176.34 1338.09,1167.59 1381.28,1153.74C1383,1155.91 1385.81,1156.99 1388.6,1156.46C1391.83,1155.84 1394.29,1153.18 1394.66,1149.91C1397.54,1124.58 1398.3,1099.38 1397.47,1074.01C1430.89,1091.25 1460.13,1114.64 1490.88,1136.28C1493.97,1138.46 1498.2,1138 1500.77,1135.21L1505.83,1129.69C1530.46,1107.51 1554.01,1084.3 1584.01,1069.46C1586.95,1068 1588.62,1064.8 1588.11,1061.55L1587.95,1060.51C1592.2,1033.84 1597.86,1007.41 1600.92,980.548C1600.92,980.551 1602.75,975.848 1602.75,975.848L1602.75,975.852C1603.66,973.536 1603.37,970.897 1601.93,968.821C1596.55,961.046 1591.13,953.313 1585.36,945.822C1583.69,943.658 1580.99,942.565 1578.28,942.966L1574.29,943.56C1544.6,938.761 1514.95,935.305 1484.97,932.799C1483.67,932.691 1482.37,932.92 1481.19,933.465C1479.48,934.254 1479.29,934.341 1479.29,934.341C1479.29,934.341 1482.44,948.718 1482.44,948.718C1479.49,948.718 1476.81,946.996 1475.59,944.311C1474.36,941.627 1474.82,938.474 1476.75,936.246C1462,953.241 1447.17,970.168 1432.36,987.114C1419.44,979.514 1406.23,972.395 1393.02,965.318C1409.73,951.33 1425.91,936.781 1441.78,921.837C1444.41,921.593 1447.77,919.936 1446.38,912.693C1446.37,912.634 1446.26,912.041 1445.12,906.115C1444.79,904.385 1443.86,902.826 1442.5,901.708C1426.34,888.443 1410.11,875.406 1392.88,863.579C1392.41,862.821 1391.63,862.112 1390.46,861.482C1385.26,856.938 1376.21,849.668 1369.3,842.152C1365.76,838.308 1362.61,834.596 1361.76,831.177C1362.04,829.703 1363.09,824.322 1364.46,818.556C1371.47,789.085 1388.74,724.365 1394.37,698.997C1436.41,732.717 1481.14,762.389 1524.29,794.703C1526.16,796.106 1528.58,796.559 1530.83,795.929C1536.95,794.218 1537.63,794.03 1537.63,794.03L1537.62,794.03C1540.63,793.196 1542.9,790.536 1543.12,787.277C1543.98,774.598 1543.73,761.815 1544.16,749.085C1601.73,744.409 1664.44,740.672 1717.92,717.616C1719.23,718.142 1720.69,718.292 1722.14,718.01C1724.9,717.47 1727.13,715.438 1727.92,712.74C1736.27,684.339 1744.46,655.717 1751.9,627.058C1753.2,625.13 1753.44,622.076 1750.74,617.243C1749.02,614.155 1745.38,612.68 1742,613.696C1686.74,630.286 1633.04,650.865 1576.81,663.892C1588.13,650.195 1599.35,636.427 1610.34,622.443C1611.65,620.776 1612.19,618.633 1611.84,616.542C1611.42,614.01 1611.38,613.757 1611.37,613.732C1609.71,603.807 1605.27,617.971 1604.18,621.667L1603.94,622.509L1597.49,617.051L1598.49,613.132L1596.44,615.725C1596.43,615.589 1596.42,615.451 1596.41,615.312C1596.23,611.286 1599.25,607.831 1603.27,607.471C1579.22,609.628 1555.17,609.877 1531.06,609.207C1530.4,609.189 1529.74,609.258 1529.11,609.414C1518.12,570.105 1513.59,529.551 1499.51,490.805C1498.85,488.989 1497.52,487.496 1495.79,486.635C1488.02,482.763 1487.25,482.376 1487.17,482.337C1483.6,480.559 1481.72,480.802 1480.88,482.101ZM1559.08,682.946C1558.26,683.188 1551.63,684.772 1551.63,673.363C1551.63,671.602 1552.25,669.896 1553.38,668.542C1565.79,653.63 1578.13,638.698 1590.23,623.553C1570.98,624.721 1551.72,624.817 1532.43,624.317C1524.55,627.955 1524.3,627.37 1524.3,627.37C1520.99,627.37 1518.07,625.207 1517.1,622.04C1504.66,581.384 1500.51,539.128 1486.36,498.768L1483.2,497.193C1448.48,508.415 1413.51,517.537 1378.19,526.661L1378.17,526.672C1370.75,534.016 1363.52,541.541 1356.34,549.118C1353.77,551.832 1349.65,552.209 1346.65,550.177C1345.02,553.19 1341.48,554.798 1338.03,553.852C1296.03,542.316 1252.3,536.438 1208.82,533.623C1192.66,635.593 1181.97,741.19 1154.11,840.638C1196.36,920.461 1217.4,996.214 1253.07,1076.76L1257.02,1073.75C1257.14,1073.31 1257.22,1072.85 1257.26,1072.38C1254.56,1104.66 1254.14,1136.91 1256.8,1169.2C1298.4,1159.99 1340.19,1151.42 1380.73,1138.08C1383,1113.16 1383.21,1088.33 1381.94,1063.3C1381.82,1062.76 1381.76,1062.21 1381.76,1061.64C1381.76,1059.83 1381.76,1059.62 1381.76,1059.62C1381.76,1059.62 1389.29,1067.16 1389.29,1067.16L1389.62,1066.54C1390.53,1064.81 1393.2,1060 1395.02,1058.83L1392.43,1054.8C1429.51,1071.79 1461.19,1096.65 1494.15,1120.13C1494.15,1120.13 1494.96,1119.25 1494.96,1119.25C1494.96,1119.25 1500.52,1131.87 1500.52,1131.87L1495.48,1118.74C1520.05,1096.62 1543.71,1073.66 1573.07,1058.13C1577.34,1031.37 1583.05,1004.85 1586.06,977.895C1586.13,977.244 1586.29,976.606 1586.53,975.997L1587.26,974.112C1583.61,968.854 1579.91,963.63 1576.07,958.506C1574.25,958.752 1574.24,958.717 1574.24,958.717C1573.84,958.717 1573.43,958.684 1573.03,958.619C1544.25,953.934 1515.5,950.534 1486.45,948.05L1475.19,960.998C1471.22,965.543 1467.25,970.088 1463.29,974.633L1440.21,1001.03C1437.72,1006.13 1434.9,1004.95 1434.08,1004.46C1436.09,1004.38 1438.05,1003.5 1439.46,1001.89L1440.21,1001.03C1440.4,1000.63 1440.6,1000.18 1440.79,999.697L1440.79,999.696C1439.63,1002.46 1436.91,1004.3 1433.85,1004.3C1433.85,1004.3 1433.93,1004.37 1434.08,1004.46C1433.53,1004.48 1432.98,1004.44 1432.44,1004.34C1430.5,1004.3 1427.15,1003.78 1426.07,1000.9C1411.41,992.219 1396.35,984.195 1381.34,976.153L1377.16,976.153C1373.97,976.153 1371.12,974.143 1370.06,971.135C1368.99,968.127 1369.94,964.773 1372.42,962.765C1392.55,946.454 1411.86,929.282 1430.73,911.541C1414.6,898.332 1398.37,885.392 1381.05,873.759C1380.05,873.087 1379.26,872.211 1378.69,871.218C1371.96,865.419 1361.23,856.504 1354.37,847.891C1350.19,842.648 1347.43,837.356 1346.72,832.753C1346.63,832.175 1346.55,831.084 1346.75,829.525C1347.05,827.209 1348.14,822.086 1349.8,815.071C1357.46,782.848 1377.55,708.137 1380.84,690.098L1379.86,684.849C1379.28,681.728 1380.72,678.578 1383.46,676.974C1386.2,675.369 1389.65,675.653 1392.09,677.684C1435.78,714.059 1482.92,745.201 1528.46,779.025C1528.95,766.606 1528.71,754.116 1529.4,741.703C1529.61,737.951 1532.55,734.926 1536.29,734.613C1595.26,729.684 1660.53,727.003 1715.27,702.315C1722.15,678.83 1728.88,655.205 1735.15,631.543C1678.18,649.198 1622.55,670.224 1563.87,682.128C1561.73,683.809 1559.17,682.919 1559.17,682.919L1559.08,682.946ZM1380.7,1138.36C1378.26,1139.95 1376.9,1142.87 1377.39,1145.87C1377.52,1146.71 1377.8,1147.5 1378.19,1148.22L1384.82,1152.19L1384.86,1151.25C1384.9,1150.33 1384.99,1148.83 1385.15,1147.16L1379.69,1148.21C1380.07,1144.92 1380.4,1141.64 1380.7,1138.36ZM1250.18,1078.97L1249.54,1079.02L1249.75,1079.29L1250.18,1078.97ZM1257.02,1073.75L1257,1073.83L1257.01,1073.8L1257.02,1073.75ZM1574.56,1061.28L1573.91,1062.53L1580.32,1068.02L1574.56,1061.28ZM1428.63,1002.43C1426.41,1000.35 1425.62,997.085 1426.78,994.166C1425.56,997.238 1425.5,999.392 1426.07,1000.9L1426.97,1001.43L1428.63,1002.43C1429,1002.78 1429.41,1003.09 1429.87,1003.37C1430.68,1003.86 1431.55,1004.18 1432.44,1004.34C1433.28,1004.37 1433.85,1004.3 1433.85,1004.3C1432.48,1004.3 1431.13,1003.93 1429.96,1003.22L1428.63,1002.43ZM1715.25,702.404C1712.58,704.068 1711.2,707.253 1711.88,710.392C1712.13,711.554 1712.64,712.605 1713.35,713.487L1719.24,716.327L1719.23,715.471C1719.23,713.826 1719.31,710.128 1719.98,707.216L1713.46,708.491L1715.25,702.404ZM1377.99,526.777C1377.06,527.347 1376.31,527.743 1375.71,528.015C1376.53,527.74 1377.31,527.323 1377.99,526.777ZM1480.86,482.14C1477.7,483.477 1475.81,486.816 1476.36,490.261C1476.75,492.737 1478.33,494.771 1480.45,495.824L1483.8,496.61L1483.4,495.729C1482.25,493.056 1479.04,485.048 1480.86,482.14Z"/>
        </g>
        <g transform="matrix(1.21035,0,0,1.21035,205.336,17.4741)">
            <g id="O">
                <path d="M527.288,460.178L517.043,473.397C526.901,459.599 536.703,445.728 546.181,431.665L550.46,431.626C572.616,433.478 595.057,435.131 616.864,439.696L618.965,439.98C644.864,420.037 669.157,398.439 693.088,376.198L695.824,376.488C738.392,384.86 781.132,390.779 817.806,415.577L824.479,411.576C862.318,412.627 901.269,417.103 938.097,426.101L941.439,426.614C965.881,464.179 981.172,506.673 978.41,552.035L976.4,552.077C963.706,576.626 946.394,597.202 925.474,615.055C948.715,655.993 966.551,699.269 983.657,743.069L979.776,741.575C917.33,763.308 874.222,835.936 849.542,892.78L848.994,889.147C809.156,897.068 774.549,913.653 740.937,936.222L734.254,941.235C717.034,917.132 707.334,895.919 697.87,867.97L698.162,872.274C679.981,869.504 662.594,862.524 644.26,860.835C608.285,857.519 567.39,870.845 533.752,882.755L530.41,882.755C519.064,853.371 505.567,824.843 494.377,795.398L493.651,794.2C497.18,776.258 502.105,758.729 507.651,741.317L506.744,735.278C472.794,708.425 437.622,683.095 404.48,655.232L403.202,654.386C435.713,609.856 468.471,565.424 505.738,524.678L505.126,521.723C500.757,518.602 496.255,515.689 491.7,512.849L490.565,512.016C502.64,494.731 514.616,477.137 527.288,460.178L540.738,442.822C536.149,448.505 531.678,454.302 527.288,460.178ZM673.66,546.157L672.858,546.831C672.509,547.124 672.16,547.416 671.811,547.709L671.469,547.995C676.631,555.883 681.648,563.864 686.863,571.717L673.66,546.157C695.008,528.197 715.501,509.295 737.213,491.761L740.937,491.777C751.793,504.815 761.937,518.39 772.615,531.562L772.683,530.206C804.6,533.771 836.979,535.666 868.685,540.839L867.921,543.573C862.428,592.763 864.94,638.878 891.785,681.294L891.719,681.748C869.639,702.062 846.046,720.666 821.138,737.391L826.867,739.348C822.979,756.898 820.285,774.741 817.796,792.529L814.433,794.171C787.29,814.502 746.689,816.887 714.203,820.934L710.862,817.592C704.792,804.348 699.607,790.254 692.18,777.699L688.268,775.143C669.137,763.357 648.465,754.327 628.082,744.985L629.868,740.522C632.727,716.3 632.935,691.7 632.935,667.328L636.146,664.585C628.61,652.678 622.16,640.319 613.952,628.786L613.952,625.445C622.468,615.217 630.482,604.548 639.186,594.485L644.028,592.028C640.688,583.389 636.962,574.91 633.589,566.287L630.661,565.294C642.879,555.121 655.433,545.158 668.356,535.888L673.66,546.157ZM925.474,615.055C924.674,615.738 923.869,616.416 923.059,617.09L924.73,613.749C924.978,614.183 925.225,614.617 925.474,615.055ZM671.469,547.995L670.761,548.585L670.761,546.915L671.469,547.995Z" style="fill:rgb(225,21,49);"/>
                <path d="M529.931,888.962C527.554,888.779 525.472,887.247 524.603,884.997C513.314,855.759 499.895,827.367 488.738,798.08C488.603,797.872 488.466,797.654 488.326,797.424C487.524,796.098 487.244,794.52 487.544,792.999C491.025,775.3 495.842,757.997 501.281,740.816L500.954,738.637C467.61,712.354 433.153,687.457 400.644,660.138C400.37,659.97 400.078,659.783 399.765,659.576C398.347,658.637 397.375,657.159 397.075,655.486C396.774,653.812 397.172,652.088 398.174,650.715C429.834,607.351 461.736,564.086 497.771,524.19C494.694,522.102 491.563,520.099 488.407,518.132C488.678,518.3 488.96,518.447 489.251,518.569C488.626,518.236 487.848,517.744 486.88,517.032C484.156,515.031 483.527,511.222 485.462,508.451C493.927,496.334 502.343,484.067 510.982,471.974C511.162,471.206 511.492,470.46 511.978,469.779C521.803,456.027 531.573,442.202 541.019,428.186C539.733,430.095 539.605,432.557 540.685,434.589C541.239,435.63 542.064,436.47 543.047,437.041C543.326,437.152 543.599,437.284 543.863,437.439C544.587,437.733 545.372,437.89 546.181,437.89C546.181,437.89 546.128,425.441 546.128,425.441C546.128,425.441 546.552,425.437 550.403,425.402C550.595,425.4 550.787,425.407 550.979,425.423C573.092,427.272 595.484,428.942 617.267,433.424C641.963,414.259 665.21,393.589 688.113,372.322C688.361,370.665 689.871,369.598 693.746,370.009C693.77,370.011 694.017,370.037 696.479,370.298C696.662,370.317 696.845,370.345 697.025,370.38C739.129,378.661 781.337,384.774 817.959,408.228L821.278,406.237C822.296,405.627 823.466,405.321 824.652,405.354C862.83,406.414 902.126,410.93 939.297,419.988L942.382,420.461C944.135,420.729 945.689,421.733 946.656,423.219C971.828,461.905 987.467,505.699 984.623,552.414C984.464,555.03 982.704,557.188 980.331,557.956C968.239,580.398 952.345,599.581 933.383,616.423C955.193,655.638 972.278,696.904 988.623,738.682C990.806,740.28 990.776,742.101 989.841,743.779C989.727,744.769 989.376,745.732 988.797,746.58C987.637,748.278 985.713,749.294 983.657,749.294C983.657,749.294 983.634,749.361 983.189,749.276C982.304,749.21 981.46,748.957 980.705,748.545L979.73,748.204C919.976,770.279 879.041,840.466 855.252,895.259C854.146,897.806 851.488,899.312 848.735,898.953C847.004,898.726 845.498,897.796 844.516,896.453C807.932,904.604 775.796,920.328 744.532,941.307L737.988,946.215C736.648,947.22 734.958,947.643 733.302,947.386C731.646,947.13 730.163,946.217 729.189,944.853C713.278,922.584 703.631,902.736 694.78,878.027C677.602,875.057 661.077,868.636 643.689,867.033C608.564,863.796 568.672,876.994 535.829,888.623C535.162,888.859 534.46,888.98 533.752,888.98L530.41,888.98L529.931,888.962ZM695.217,382.712C671.825,404.396 648.054,425.437 622.763,444.912C621.445,445.927 619.777,446.372 618.129,446.149C616.238,445.893 616.03,445.864 616.03,445.864L616.864,445.92L615.588,445.788C594.125,441.296 572.039,439.674 550.229,437.853C549.973,437.856 549.732,437.858 549.507,437.86L546.866,441.735C547.163,443.405 546.778,445.19 545.658,446.635C545.658,446.635 532.242,463.947 532.242,463.947C520.907,479.12 510.131,494.803 499.337,510.314C502.52,512.357 505.664,514.457 508.744,516.658C510.019,517.568 510.904,518.926 511.221,520.46C511.772,523.12 511.827,523.386 511.833,523.412C513.017,529.127 510.543,530.67 508.402,530.997C473.43,569.513 442.421,611.267 411.768,653.212C443.897,679.961 477.823,704.466 510.605,730.396C511.845,731.376 512.665,732.791 512.899,734.353C513.716,739.788 513.797,740.332 513.806,740.386C514.334,743.904 513.59,745.787 512.458,746.767C507.667,762.069 503.399,777.477 500.2,793.199C510.801,821.091 523.474,848.163 534.422,875.919C568.323,863.995 608.981,851.332 644.832,854.636C663.288,856.337 680.798,863.331 699.1,866.121L694.125,870.697L697.87,874.195L698.112,873.538C699.145,870.779 703.172,860.556 703.989,866.626C712.48,891.601 721.198,911.105 735.673,932.389C735.673,932.389 737.195,931.247 737.195,931.247C737.195,931.247 740.937,942.447 740.937,942.447L737.467,931.054C771.549,908.169 806.65,891.35 846.978,883.204C872.296,827.162 914.792,759.475 974.535,736.858C959.058,697.556 942.752,658.775 922.154,621.85L917.493,614.303C917.493,614.303 917.659,613.972 919.163,610.965C920.189,608.911 922.263,607.59 924.558,607.526L924.646,607.527C943.515,590.857 959.209,571.772 970.871,549.218C971.256,548.473 971.78,547.827 972.403,547.307C973.848,505.869 959.793,466.999 937.723,432.341C937.723,432.341 937.157,432.254 937.157,432.254C937.157,432.254 938.097,432.326 938.097,432.326L936.62,432.148C900.803,423.397 862.953,418.981 826.118,417.851C826.118,417.851 821.014,420.912 821.014,420.912C818.159,422.624 817.806,421.802 817.806,421.802C816.563,421.802 815.349,421.43 814.32,420.734C778.523,396.529 736.771,390.861 695.217,382.712ZM846.95,883.267C845.876,885.639 844.839,887.982 843.832,890.301L850.385,891.158C849.862,892.576 849.438,893.908 849.201,894.682L848.994,895.372L842.84,890.079C842.823,889.973 842.81,889.865 842.799,889.757C842.514,886.86 844.269,884.196 846.95,883.267ZM704.07,867.416L704.072,867.441L704.071,867.425L704.07,867.416ZM675.599,536.347L673.886,533.031C673.057,531.425 671.569,530.258 669.811,529.836C668.052,529.413 666.197,529.776 664.728,530.83C651.683,540.187 639.011,550.242 626.678,560.51C624.947,561.952 624.129,564.216 624.541,566.431C624.952,568.646 626.528,570.466 628.662,571.189C628.729,571.212 628.796,571.234 628.861,571.256C631.447,577.719 634.188,584.117 636.768,590.581L639.186,600.71C636.75,600.71 634.538,599.289 633.525,597.073C632.512,594.858 632.885,592.255 634.479,590.413C625.749,600.505 617.709,611.204 609.169,621.462C608.238,622.58 607.728,623.989 607.728,625.445L607.728,628.783C607.728,633.173 609.275,634.734 610.827,635.195C618.04,645.785 623.975,656.98 630.813,667.798L632.935,673.553C629.498,673.553 626.711,670.766 626.711,667.328C626.711,691.183 626.521,715.259 623.781,738.975C623.781,738.978 622.304,742.668 622.304,742.668C622.304,742.668 628.082,751.21 628.082,751.21C627.187,751.21 626.302,751.017 625.488,750.644C645.615,759.868 666.036,768.767 684.93,780.399C685.908,781.036 686.75,781.56 687.48,781.993C694.447,794.076 699.403,807.531 705.203,820.186L710.862,823.817C710.862,823.817 706.463,821.997 706.463,821.997C706.463,821.997 706.794,822.328 709.802,825.335C711.159,826.693 713.068,827.348 714.973,827.111C748.351,822.952 789.942,820.123 817.907,799.342C818.623,799.03 819.486,798.631 820.527,798.123C822.387,797.215 823.674,795.442 823.961,793.392C826.427,775.765 829.091,758.084 832.944,740.695C833.223,739.439 833.1,738.179 832.655,737.058C854.873,721.607 876.013,704.656 895.934,686.329C896.986,685.36 897.673,684.059 897.879,682.644C897.938,682.235 897.945,682.19 897.945,682.19L897.941,682.193C898.156,680.745 897.853,679.242 897.045,677.965C871.082,636.943 868.792,592.318 874.052,544.765L874.669,542.553C874.781,542.164 874.855,541.759 874.889,541.342C875.151,538.11 872.888,535.218 869.687,534.696C838.302,529.575 806.259,527.648 774.649,524.16C765.218,512.38 756.121,500.344 746.486,488.715C746.446,486.915 745.044,485.569 740.96,485.552C740.927,485.552 740.591,485.55 737.239,485.536C735.807,485.53 734.416,486.018 733.302,486.918C713.582,502.844 694.865,519.894 675.599,536.347ZM738.567,498.683C719.115,514.55 700.588,531.455 681.467,547.707L692.394,568.86C693.911,571.797 692.868,575.407 690.018,577.083C687.169,578.758 683.506,577.914 681.678,575.161C677.228,568.461 672.924,561.67 668.55,554.922C666.76,554.571 664.537,552.924 664.537,546.915C664.537,546.734 664.544,546.554 664.56,546.377C656.287,552.539 648.168,558.956 640.196,565.495L640.104,565.841C643.286,573.847 646.727,581.746 649.834,589.783C650.986,592.763 649.694,596.132 646.845,597.578C645.376,598.324 644.188,598.897 643.226,599.336C635.406,608.437 628.127,618.014 620.503,627.29C628.086,638.302 634.268,649.978 641.406,661.256C643.061,663.871 642.543,667.306 640.19,669.317L639.158,670.199C639.139,693.876 638.825,717.74 636.049,741.252C636.03,741.417 636.004,741.581 635.969,741.744C654.851,750.358 673.84,758.943 691.533,769.844C691.58,769.873 691.626,769.902 691.672,769.932C695.194,772.233 695.546,772.463 695.581,772.486C698.411,774.334 699.365,776.054 699.278,777.568C705.733,789.193 710.579,801.911 716.064,813.991L716.46,814.388C747.422,810.692 785.224,808.272 810.701,789.189C808.556,790.796 807.68,793.595 808.527,796.138C809.373,798.681 811.753,800.396 814.433,800.396C814.433,800.396 811.705,788.576 811.705,788.576C811.705,788.576 812.093,788.387 812.093,788.387C814.219,773.363 816.535,758.316 819.621,743.451L819.176,743.299L819.164,743.295L819.141,743.287L819.131,743.284L819.132,743.284C817.274,742.652 815.778,741.159 815.183,739.205C814.387,736.593 815.387,733.768 817.647,732.238C817.949,731.491 818.57,730.992 819.638,730.894C842.229,715.591 863.715,698.722 883.945,680.413C859.253,638.819 856.375,593.851 861.398,546.002C833.413,541.81 804.96,539.919 776.823,536.919C774.986,538.737 772.615,537.787 772.615,537.787C770.738,537.787 768.962,536.94 767.78,535.482C757.914,523.312 748.505,510.797 738.567,498.683ZM817.873,799.357C816.544,799.937 815.727,800.217 815.225,800.345C816.17,800.224 817.077,799.887 817.873,799.357ZM642.889,599.488C641.983,600.159 640.906,600.574 639.774,600.68C640.273,600.564 641.194,600.252 642.889,599.488ZM497.81,514.042C497.776,514.216 497.734,514.389 497.685,514.562C496.92,517.233 494.479,519.074 491.7,519.074C491.7,519.074 496.569,517.216 497.81,514.042ZM688.094,372.488C686.825,374.189 686.499,376.451 687.294,378.475C688.158,380.673 690.182,382.177 692.501,382.392L693.088,382.423L692.609,381.836C691.304,380.192 687.801,375.471 688.094,372.488Z"/>
            </g>
        </g>
        <g transform="matrix(1.21035,0,0,1.21035,205.336,17.4741)">
            <g id="R">
                <g>
                    <path d="M641.575,682.026C673.064,681.191 703.843,681.399 735.28,682.602L739.536,682.892C748.802,698.204 757.038,714.133 766.492,729.329L767.767,734.221C766.685,741.949 765.728,749.722 764.911,757.483L764.661,757.784C764.359,759.635 764.094,767.112 762.643,768.21C762.373,768.414 751.153,762.73 746.7,761.022C729.558,754.449 712.172,748.53 695.051,741.92L696.679,745.803C689.607,758.435 681.642,770.657 672.809,782.127L668.474,783.414C658.645,776.822 648.785,769.169 638.182,763.902C620.709,755.223 601.947,749.457 584.695,740.209L581.084,738.243C571.614,745.19 561.807,751.978 551.332,757.318L545.314,752.844C509.382,723.297 463.591,704.653 430.71,671.771L427.485,671.379C422.478,679.259 417.856,687.407 413.6,695.724L416.167,700.002C436.62,714.934 456.176,730.957 475.471,747.346L470.836,748.371C454.706,777.19 439.054,806.265 424.721,836.022L424.413,835.758C427.468,858.599 431.32,880.538 437.553,902.749L437.226,902.989C411.406,913.577 383.882,918.219 358.85,930.98L351.151,932.691C346.069,919.529 340.918,906.393 336.795,892.889L335.752,892.483C335.99,883.927 335.975,875.348 336.306,866.797L336.396,861.48C326.136,850.8 314.672,843.575 301.533,836.877L299.822,833.456C295.066,805.186 292.276,776.435 287.185,748.286L282.395,742.079C272.828,734.454 261.692,728.878 250.205,724.81L252.771,723.955C251.065,693.286 251.131,662.399 243.708,632.398L240.794,633.275C247.833,613.395 260.727,591.885 262.395,570.732L263.913,564.716C250.175,537.935 228.382,514.256 206.575,493.832L204.864,491.266C212.461,480.591 220.604,470.271 229.356,460.515L233.951,463.891C236.73,465.699 239.444,467.59 242.138,469.525L248.494,472.445C264.913,457.252 281.634,442.34 298.925,428.142L304.955,427.105C313.407,433.009 321.518,439.32 329.327,446.052L328.053,444.215C351.069,433.888 373.43,422.188 396.096,411.139L395.635,415.984C398.078,421.314 400.223,426.762 402.552,432.139L404.19,434.804C416.424,436.171 429.195,436.649 441.984,436.542C455.256,436.431 468.548,435.69 481.281,434.658L483.749,436.515C484.2,444.626 484.995,452.643 486.007,460.702L487.171,462.18C500.214,469.63 513.691,476.1 525.73,485.194L530.8,490.41C530.808,510.013 528.251,529.215 526.554,548.695L523.956,550.294C514.004,554.855 504.544,560.845 495.318,566.72L494.015,568.258C492.143,581.641 490.352,595.003 489.628,608.509L492.304,610.177C498.162,615.009 503.736,620.132 508.868,625.736L509.413,627.286C502.197,637.387 495.16,647.709 487.553,657.519L491.448,660.65C521.374,653.435 551.438,644.822 580.014,633.327L580.418,634.985C586.812,647.99 593.749,660.547 602.24,672.306L605.226,673.482C617.365,676.215 629.531,678.894 641.575,682.026L641.156,682.037L642.128,682.169L641.575,682.026ZM388.673,469.399C388.952,469.258 389.23,469.116 389.511,468.973L387.936,468.168C388.18,468.579 388.425,468.989 388.673,469.399C364.271,481.764 354.547,481.533 336.607,505.809L346.119,526.631C343.366,521.632 340.601,516.567 337.463,511.797L335.895,516.258C332.736,522.485 329.424,528.627 326.342,534.895L329.764,535.75C334.826,547.032 340.289,558.174 344.965,569.625L347.191,575.112C340.554,593.952 334.913,612.905 330.619,632.419L333.186,635.841C354.035,638.17 374.935,639.988 395.796,642.156L399.913,639.263C416.21,622.966 430.704,604.933 444.836,586.761L446.421,579.613C449.159,557.841 451.732,536.296 452.952,514.364L451.051,509.797C436.6,506.699 422.116,503.529 407.612,500.676L406.365,495.202C400.311,486.799 394.04,478.272 388.673,469.399Z" style="fill:rgb(225,21,49);"/>
                    <path d="M328.476,437.189C322.032,431.859 315.386,426.799 308.52,422.002C307.176,421.063 305.516,420.693 303.9,420.97C298.473,421.903 297.876,422.006 297.876,422.006L298.925,434.366C296.296,434.366 293.95,432.715 293.064,430.24C292.178,427.764 292.943,424.999 294.974,423.331C278.66,436.728 262.849,450.755 247.321,465.056L245.27,464.114C242.71,462.279 240.127,460.487 237.489,458.766C237.495,458.771 233.046,455.502 233.046,455.502C224.706,449.374 228.136,462.574 229.123,465.969L229.356,466.739L225.683,465.537C224.823,464.911 224.123,464.063 223.672,463.052C222.67,460.809 223.082,458.187 224.722,456.358C215.814,466.289 207.525,476.791 199.793,487.657C198.296,489.76 198.253,492.57 199.685,494.719C201.265,497.089 202.548,498.48 203.561,499.277C203.115,499.032 202.698,498.729 202.32,498.376C223.056,517.796 243.831,540.187 257.296,565.494C257.297,565.494 256.361,569.203 256.361,569.203C256.361,569.203 262.395,576.957 262.395,576.957C260.659,576.957 259.002,576.232 257.823,574.957C256.645,573.683 256.053,571.974 256.189,570.243C254.562,590.881 241.794,611.801 234.927,631.197C234.252,633.102 234.544,635.217 235.711,636.867C236.501,637.985 237.626,638.796 238.898,639.202C244.676,665.727 244.957,692.904 246.326,719.947C244.887,721.089 243.998,722.841 243.98,724.753C243.955,727.411 245.621,729.791 248.127,730.678C258.735,734.434 269.038,739.529 277.935,746.488L281.325,750.881C286.245,778.529 289.015,806.741 293.684,834.488L299.822,839.68C299.822,839.68 294.256,836.243 294.256,836.243C294.256,836.243 294.426,836.582 295.965,839.661C296.56,840.851 297.521,841.819 298.706,842.423C310.453,848.412 320.82,854.807 330.128,863.989L330.083,866.642C329.754,875.189 329.767,883.76 329.53,892.31C329.478,894.169 330.256,895.909 331.586,897.104C335.617,909.91 340.509,922.411 345.344,934.933C346.453,937.805 349.495,939.435 352.501,938.767L360.2,937.056C360.713,936.942 361.209,936.764 361.677,936.525C386.005,924.124 412.714,919.478 437.88,909.439C438.439,909.414 439.449,909.075 441.23,907.772C443.325,906.239 444.248,903.567 443.547,901.067C437.626,879.97 433.889,859.119 430.931,837.483C444.639,809.108 459.545,781.355 474.907,753.846C474.907,753.846 476.812,753.424 476.812,753.424L476.782,753.428C478.839,752.988 480.568,751.522 481.314,749.492C482.214,747.042 481.49,744.291 479.501,742.601C460.412,726.388 441.067,710.532 420.861,695.727L420.727,695.503C423.573,690.087 426.58,684.75 429.756,679.523C462.476,710.498 506.514,728.999 541.361,757.652C541.439,757.717 541.519,757.779 541.6,757.84C547.016,761.866 547.557,762.269 547.611,762.309L547.646,762.334L547.682,762.361L547.761,762.416C550.775,764.613 551.332,763.543 551.332,763.543C552.314,763.543 553.283,763.31 554.159,762.864C563.756,757.971 572.816,751.909 581.564,745.592L581.754,745.695C599.063,754.973 617.882,760.769 635.413,769.477C645.779,774.626 655.398,782.14 665.006,788.584C666.547,789.617 668.467,789.909 670.245,789.382L674.576,788.096L674.576,788.096C675.819,787.728 676.932,786.976 677.741,785.925C686.294,774.817 694.053,763.02 700.988,750.829C715.451,756.236 730.048,761.304 744.471,766.835C748.479,768.372 757.968,773.129 760.022,773.917C763.634,775.302 765.972,773.497 766.398,773.175C767.401,772.416 768.594,770.99 769.303,768.799C770.063,766.451 770.418,762.133 770.671,759.844C770.891,759.309 771.038,758.735 771.102,758.134C771.911,750.443 772.86,742.742 773.931,735.083C774.045,734.271 773.997,733.445 773.79,732.651C772.644,728.249 772.529,727.809 772.517,727.765C772.08,726.086 771.61,725.24 771.13,724.989C761.958,710.135 753.902,694.607 744.861,679.669C743.812,677.934 741.982,676.82 739.959,676.682C736.129,676.421 735.746,676.395 735.708,676.392L735.542,676.383L735.519,676.382L735.502,676.381L735.144,676.363L734.842,676.357C703.799,675.181 673.384,674.975 642.289,675.781C630.611,672.766 618.824,670.162 607.061,667.514L606.237,667.189C598.536,656.297 592.159,644.718 586.256,632.752C584.37,626.72 581.006,636.45 580.194,638.977L580.014,639.552L573.967,634.8C573.943,634.704 573.922,634.608 573.903,634.51C573.336,631.583 574.925,628.665 577.691,627.552C552.336,637.751 525.797,645.651 499.233,652.322C504.399,645.242 509.396,638.019 514.478,630.905C515.657,629.255 515.958,627.134 515.286,625.221C515.167,624.885 515.049,624.584 514.928,624.317C514.691,623.298 514.195,622.336 513.459,621.532C508.131,615.714 502.347,610.391 496.265,605.375L496.066,605.222C496.833,593.819 498.316,582.509 499.891,571.189C508.489,565.717 517.296,560.193 526.55,555.952C526.78,555.847 527.003,555.728 527.218,555.596C529.556,554.157 529.813,553.999 529.813,553.999L529.811,554C531.44,553 532.579,551.267 532.756,549.236C534.468,529.575 537.033,510.192 537.025,490.408C537.024,488.788 536.393,487.233 535.264,486.071L530.227,480.89L530.222,480.885L530.213,480.876L530.198,480.861C529.266,479.901 528.49,479.31 527.846,479.016C516.53,470.758 504.076,464.577 491.912,457.711C491.046,450.541 490.366,443.393 489.964,436.17C489.862,434.338 488.958,432.645 487.492,431.542C485.27,429.87 485.048,429.703 485.026,429.686C482.626,427.88 481.205,427.717 480.421,428.481C467.944,429.488 454.929,430.209 441.932,430.318C430.461,430.414 419.005,430.033 407.954,428.941C405.946,424.276 404.061,419.564 401.989,414.926C401.989,414.926 402.293,411.733 402.293,411.733L396.096,417.364L389.9,410.555C390.098,408.439 391.376,406.515 393.369,405.543C371.738,416.088 350.388,427.228 328.476,437.189ZM390.899,420.626C372.438,429.749 354.107,439.145 335.387,447.723C334.626,451.052 330.557,452.042 329.552,452.237L329.327,452.277C329.327,452.277 328.26,453.335 325.881,451.235C325.666,451.093 325.46,450.937 325.263,450.767C318.256,444.726 311,439.032 303.467,433.672C302.747,433.793 302.141,433.893 301.632,433.976C284.877,447.789 268.657,462.268 252.721,477.014C250.875,478.723 248.181,479.152 245.894,478.102C240.174,475.473 239.545,475.184 239.545,475.184C239.545,475.184 242.138,475.749 242.138,475.749L238.507,474.581C235.891,472.702 233.255,470.865 230.556,469.108C230.457,469.044 230.36,468.977 230.265,468.907L230.263,468.906C224.099,476.031 218.252,483.439 212.697,491.046C234.382,511.547 255.784,535.233 269.451,561.874C270.142,563.221 270.319,564.772 269.949,566.239L268.552,571.771C266.863,591.077 256.316,610.707 249.008,629.134C249.342,629.676 249.595,630.272 249.751,630.903C257.093,660.581 257.255,691.109 258.873,721.458C268.648,725.468 278.011,730.625 286.275,737.211C286.666,737.523 287.018,737.88 287.323,738.276C291.634,743.862 292.065,744.42 292.109,744.476C294.287,747.3 294.575,749.343 293.956,750.816C298.597,777.524 301.343,804.728 305.809,831.511L306.19,832.274C319.202,839.04 330.607,846.468 340.885,857.168C342.025,858.354 342.648,859.942 342.62,861.586C342.539,866.371 342.531,866.85 342.53,866.897C342.526,867.139 342.517,867.372 342.506,867.565C342.238,874.798 342.21,882.051 342.056,889.291C342.632,890.018 342.878,890.77 342.886,891.519C346.417,903.014 350.697,914.242 355.027,925.453C355.027,925.453 356.736,925.073 356.734,925.074C380.196,913.276 405.78,908.391 430.111,899.108C424.635,878.424 421.094,857.892 418.244,836.583C418.453,838.151 419.235,839.517 420.363,840.483L424.413,841.982L424.242,841.215C423.877,839.506 423.081,835.31 423.374,832.429L419.113,833.321C433.316,803.835 448.807,775.014 464.777,746.456C448.472,732.734 431.927,719.331 414.757,706.692C413.813,706.628 412.449,705.904 410.826,703.2C410.803,703.161 410.572,702.776 408.262,698.927C407.157,697.084 407.08,694.801 408.059,692.888C412.403,684.4 417.12,676.084 422.231,668.04C421.013,669.957 420.935,672.385 422.029,674.376C423.01,676.162 424.795,677.342 426.793,677.562L427.485,677.603L427.011,677.009C424.963,674.368 417.446,663.886 428.24,665.2C428.269,665.203 428.559,665.239 431.461,665.592C432.843,665.76 434.128,666.386 435.111,667.369C467.816,700.074 513.388,718.575 549.149,747.939L551.892,749.978C560.806,745.104 569.229,739.219 577.402,733.223C575.232,734.815 574.331,737.622 575.168,740.18C575.676,741.731 576.754,742.978 578.126,743.715L581.084,744.467L580.777,743.729C579.465,740.466 574.793,727.73 584.064,732.778C584.064,732.778 587.652,734.731 587.652,734.731C604.843,743.943 623.541,749.679 640.951,758.327C650.844,763.241 660.121,770.161 669.306,776.455C676.778,766.576 683.6,756.146 689.758,745.393C689.758,745.393 689.312,744.329 689.312,744.329C689.312,744.329 695.051,748.145 695.051,748.145L695.134,747.382C695.426,744.857 696.502,736.922 698.514,736.746C698.138,736.495 697.73,736.281 697.293,736.113C714.409,742.722 731.791,748.639 748.928,755.21C750.925,755.976 754.792,757.737 758.172,759.311C758.317,758.177 758.449,757.203 758.517,756.782C758.587,756.352 758.702,755.932 758.86,755.53C759.608,748.543 760.469,741.549 761.43,734.591L760.704,731.8C752.01,717.745 744.321,703.085 735.87,688.881L734.955,688.819C704.326,687.648 674.321,687.427 643.664,688.201C643.172,688.328 642.657,688.394 642.128,688.394C642.128,688.394 642.121,688.451 640.314,688.204C639.662,688.115 639.046,687.927 638.481,687.657C627.002,684.71 615.418,682.157 603.859,679.555C603.548,679.484 603.242,679.39 602.945,679.274C600.258,678.215 599.962,678.099 599.962,678.099L599.974,678.101C598.873,677.673 597.904,676.933 597.194,675.95C589.287,665.001 582.687,653.382 576.634,641.351C549.493,651.847 521.14,659.894 492.907,666.701C491.032,667.153 489.053,666.71 487.549,665.502C484.043,662.684 483.657,662.374 483.657,662.374L483.666,662.377C482.96,661.817 482.375,661.098 481.963,660.258C480.918,658.125 481.178,655.582 482.634,653.705C489.285,645.127 495.496,636.154 501.776,627.286C497.643,623.016 493.242,619.035 488.658,615.239C488.658,615.239 486.338,613.793 486.338,613.793L486.338,613.793C485.892,613.515 485.479,613.179 485.11,612.791C483.935,611.551 483.321,609.882 483.412,608.176C484.145,594.493 485.953,580.954 487.85,567.396C488.013,566.23 488.504,565.134 489.265,564.235C490.438,562.851 490.567,562.698 490.567,562.698C490.567,562.698 495.318,572.945 495.318,572.945L491.975,561.469C501.215,555.585 510.693,549.604 520.638,544.973C522.23,527.593 524.376,510.409 524.562,492.924L521.611,489.888C509.879,481.097 496.764,474.828 484.084,467.585C483.389,467.188 482.777,466.661 482.281,466.032C481.234,464.702 481.118,464.556 481.118,464.556C481.118,464.556 486.007,466.927 486.007,466.927L479.831,461.478C478.98,454.706 478.282,447.963 477.808,441.171C466.152,442.053 454.086,442.666 442.036,442.767C428.996,442.876 415.974,442.384 403.499,440.991C401.592,440.778 399.891,439.698 398.886,438.063C397.413,435.665 397.25,435.401 397.25,435.401C397.25,435.401 402.552,438.364 402.552,438.364L396.841,434.614C394.826,429.963 392.952,425.259 390.899,420.626ZM700.724,739.356L700.731,739.374L700.725,739.359L700.724,739.356ZM417.09,706.157C416.53,706.222 416.167,706.226 416.167,706.226C416.479,706.226 416.788,706.203 417.09,706.157ZM421.485,696.767L421.499,696.79L421.491,696.776L421.485,696.767ZM382.248,465.64C359.366,476.825 349.437,477.974 331.601,502.109C330.256,503.93 330.005,506.336 330.945,508.395L331.576,509.775L330.161,513.799C327.046,519.928 323.79,525.978 320.756,532.148C319.926,533.836 319.904,535.809 320.695,537.515C321.487,539.221 323.007,540.478 324.832,540.934C325.004,540.977 325.171,541.018 325.331,541.058C330.004,551.335 334.934,561.525 339.201,571.975L340.539,575.274C334.156,593.62 328.719,612.089 324.54,631.081L330.619,638.644C330.619,638.644 325.642,636.157 325.642,636.157C325.642,636.157 325.896,636.496 328.206,639.576C329.236,640.95 330.788,641.837 332.495,642.027C353.36,644.358 374.276,646.178 395.152,648.348C395.366,648.37 395.581,648.381 395.796,648.381C395.796,648.381 396.304,649.408 399.379,647.246C399.416,647.22 399.787,646.96 403.492,644.356C403.785,644.149 404.061,643.918 404.314,643.664C419.985,627.994 434.015,610.743 447.643,593.286C448.85,592.857 450.156,591.525 450.915,588.101C450.929,588.037 451.072,587.394 452.498,580.961C452.54,580.772 452.573,580.582 452.597,580.39C455.353,558.474 457.939,536.787 459.167,514.709C459.219,513.773 459.059,512.837 458.699,511.971C456.988,507.862 456.817,507.451 456.799,507.409L456.795,507.398L456.779,507.36L456.753,507.302C455.915,505.322 455.175,504.578 454.53,504.636C453.888,504.201 453.155,503.882 452.356,503.711C439.189,500.888 425.996,498.006 412.784,495.357C412.784,495.357 412.435,493.825 412.435,493.825C412.009,491.954 411.515,491.117 410.996,490.982C405.7,483.637 400.252,476.198 395.434,468.502C395.654,466.623 394.561,464.563 390.768,462.625C388.3,461.364 385.295,461.886 383.398,463.907C382.91,464.427 382.525,465.014 382.248,465.64ZM386.376,477.458C390.856,484.398 395.768,491.15 400.576,497.817L401.543,502.059C402.089,504.457 403.997,506.309 406.411,506.784C419.814,509.42 433.199,512.328 446.557,515.198L446.656,515.436C445.419,536.64 442.928,557.489 440.281,578.549L439.063,584.042C425.473,601.495 411.523,618.795 395.893,634.479L394.116,635.728C375.264,633.788 356.379,632.111 337.531,630.057C341.656,612.093 346.93,594.588 353.062,577.18C353.567,575.748 353.53,574.18 352.959,572.772C350.956,567.834 350.755,567.34 350.735,567.29L350.73,567.277L350.728,567.272C346.233,556.263 341.016,545.537 336.118,534.701C336.409,533.529 336.184,532.386 335.065,531.422C336.122,529.368 337.19,527.32 338.255,525.27C339.067,526.724 339.867,528.182 340.666,529.634C342.281,532.566 345.925,533.696 348.915,532.193C351.906,530.689 353.172,527.09 351.781,524.045L343.815,506.605C358.335,487.959 367.626,486.389 386.376,477.458ZM268.419,572.296L268.37,572.474L268.393,572.398L268.419,572.296ZM208.21,499.834C207.686,499.981 207.137,500.057 206.575,500.057C206.575,500.057 207.265,500.024 208.21,499.834ZM480.407,428.496C477.263,428.938 474.931,431.698 475.061,434.91C475.139,436.848 476.098,438.55 477.544,439.635L481.281,440.883L481.055,440.11C480.376,437.702 478.514,430.376 480.407,428.496Z"/>
                </g>
            </g>
        </g>
    </g>
    <g id="Paper" transform="matrix(0.939516,0,0,0.939516,134.645,-221.296)">
        <g id="A">
            <g transform="matrix(1.35464,0,0,1.35464,-650.176,-329.357)">
                <g id="P2">
                    <path d="M1587.2,1780.08C1603.31,1795.36 1619.38,1816.75 1638.7,1827.62L1639.45,1827.85C1637.3,1789.22 1636.32,1749.4 1645.43,1711.52C1650.95,1688.57 1661.85,1666.62 1665.79,1643.36C1668.21,1629.07 1666,1613.86 1666.08,1599.44C1666.25,1567.21 1675.07,1536.1 1690.65,1508.02C1728.56,1439.67 1794.2,1392.25 1831.11,1322.97C1856.1,1276.05 1859.5,1200.12 1805.69,1170.12C1726.86,1126.16 1648.3,1210.73 1585.37,1193.64L1579.73,1199.36C1594.29,1240.48 1606.13,1283.85 1606.34,1327.74C1606.48,1357.41 1600.58,1386.51 1604.65,1416.22C1611.67,1467.39 1634.2,1511.05 1616.74,1563.17C1599.25,1615.35 1551.29,1658.72 1517.14,1700.72L1520.02,1703.95C1540.99,1743.07 1563.49,1796.32 1610.44,1810.88L1587.2,1780.08ZM1724.54,1238.17C1713.81,1247.87 1703.79,1259.23 1696.68,1271.9C1657.66,1341.45 1813.05,1334.08 1764.83,1271.03C1755.29,1258.55 1742.21,1251.53 1730.39,1241.71L1724.54,1238.17Z" style="fill:rgb(163,226,233);"/>
                    <path d="M1512.46,1704.91L1514.83,1707.57C1525.32,1727.2 1536.24,1750.24 1550.35,1770.25C1565.28,1791.42 1583.76,1809.19 1608.58,1816.89C1610.37,1817.44 1612.25,1817.16 1613.77,1816.22C1620.68,1822.8 1627.9,1828.76 1635.61,1833.09L1638.7,1833.9C1638.7,1833.9 1636.79,1833.61 1636.79,1833.61C1636.79,1833.61 1636.87,1833.63 1637.55,1833.85C1639.51,1834.47 1641.67,1834.09 1643.3,1832.82C1644.93,1831.56 1645.84,1829.57 1645.73,1827.51C1643.61,1789.48 1642.58,1750.28 1651.54,1712.99C1657.09,1689.9 1668.02,1667.81 1671.99,1644.41C1674.46,1629.79 1672.29,1614.23 1672.36,1599.48C1672.53,1568.3 1681.08,1538.23 1696.14,1511.07C1714.88,1477.3 1740.5,1448.73 1765.96,1420.01C1792.05,1390.59 1817.97,1361.01 1836.66,1325.93C1849.69,1301.46 1857.08,1269.42 1854.21,1239.6C1851.26,1208.96 1837.58,1180.7 1808.76,1164.63C1767.57,1141.66 1726.46,1151.78 1687.43,1165.89C1668.9,1172.59 1650.88,1180.14 1633.58,1184.94C1617.29,1189.45 1601.7,1191.57 1587.02,1187.58L1585.37,1199.93C1585.37,1199.93 1580.89,1189.23 1580.89,1189.23C1580.89,1189.23 1580.33,1189.8 1575.26,1194.94C1573.57,1196.65 1573.01,1199.18 1573.81,1201.45C1588.13,1241.92 1599.85,1284.58 1600.06,1327.77C1600.2,1357.71 1594.31,1387.09 1598.42,1417.07C1601.94,1442.75 1609.35,1466.55 1613.69,1490.46C1617.84,1513.28 1619.14,1536.22 1610.78,1561.18C1593.52,1612.66 1545.96,1655.3 1512.27,1696.76C1510.74,1698.64 1510.43,1701.23 1511.47,1703.42C1511.73,1703.97 1512.07,1704.47 1512.46,1704.91ZM1632.55,1816C1617.65,1804.63 1604.64,1787.96 1591.52,1775.52C1589.15,1773.27 1585.45,1773.22 1583.01,1775.4C1580.57,1777.58 1580.21,1781.26 1582.18,1783.87L1589.26,1793.25C1578.14,1785.22 1568.83,1774.63 1560.63,1763C1546.66,1743.19 1535.93,1720.33 1525.56,1700.98C1525.5,1700.86 1525.43,1700.74 1525.36,1700.63C1559.65,1659.32 1605.54,1616.35 1622.7,1565.17C1631.8,1538.01 1630.57,1513.05 1626.06,1488.22C1621.75,1464.48 1614.37,1440.86 1610.88,1415.37C1606.84,1385.93 1612.77,1357.1 1612.63,1327.71C1612.42,1284.44 1601.15,1241.65 1586.97,1200.98L1587.35,1200.59C1603.06,1203.95 1619.67,1201.84 1636.94,1197.05C1654.53,1192.17 1672.87,1184.53 1691.7,1177.71C1727.39,1164.81 1764.98,1154.61 1802.63,1175.61C1827.62,1189.54 1839.14,1214.24 1841.69,1240.8C1844.33,1268.17 1837.52,1297.56 1825.56,1320.02C1807.34,1354.21 1781.99,1382.98 1756.55,1411.67C1730.48,1441.08 1704.33,1470.39 1685.15,1504.97C1669.06,1533.98 1659.97,1566.11 1659.79,1599.41C1659.72,1613.5 1661.95,1628.35 1659.59,1642.31C1655.67,1665.43 1644.8,1687.24 1639.32,1710.05C1631.02,1744.55 1630.91,1780.63 1632.55,1816ZM1727.8,1232.79C1725.42,1231.36 1722.39,1231.65 1720.33,1233.51C1709.09,1243.65 1698.64,1255.56 1691.2,1268.83C1681.92,1285.36 1682.54,1298.29 1687.97,1307.71C1695.82,1321.34 1715.22,1328.18 1734.44,1327.47C1753.81,1326.76 1772.28,1318.34 1778.28,1304.5C1782.43,1294.93 1781.38,1282.32 1769.83,1267.21C1759.99,1254.34 1746.59,1247 1734.41,1236.88C1734.17,1236.68 1733.91,1236.5 1733.64,1236.34L1727.8,1232.79ZM1725.34,1246L1726.74,1246.85C1738.09,1256.21 1750.69,1262.88 1759.84,1274.84C1767.58,1284.96 1769.52,1293.1 1766.75,1299.51C1765.16,1303.16 1762.12,1306.08 1758.34,1308.39C1751.73,1312.42 1742.91,1314.58 1733.97,1314.91C1719.66,1315.43 1704.71,1311.59 1698.86,1301.43C1695.15,1295 1695.82,1286.27 1702.16,1274.98C1708.18,1264.25 1716.41,1254.52 1725.34,1246L1725.34,1246Z"/>
                </g>
            </g>
            <g transform="matrix(1.35464,0,0,1.35464,-452.933,-329.357)">
                <path d="M1030.36,1575.56C1063.12,1536.21 1109.21,1475.97 1130.47,1430.23C1173.25,1338.17 1196.46,1227.85 1301.32,1185.92L1308.03,1188.91C1345.17,1258.19 1376.6,1355.14 1434.14,1408.43C1478.89,1449.88 1573.2,1451.01 1584.01,1523.88L1578.58,1526.23C1523.18,1532.52 1462.1,1538.47 1406.56,1532.27L1404.12,1533.96C1372.45,1501.99 1356.06,1449.66 1311.02,1432.24L1308.41,1432.59C1250.09,1439.7 1249.08,1516.75 1207.79,1544.77C1175.34,1566.79 1082.06,1566.86 1036.33,1580.04L1030.36,1575.56ZM1373.03,1381.88C1373.73,1381.9 1374.43,1381.94 1375.13,1381.99L1377.43,1385.91C1376.31,1385.03 1374.82,1383.65 1373.03,1381.88C1354.27,1381.15 1335.73,1388.06 1317.52,1391.39C1297.14,1395.1 1276.2,1395.73 1255.57,1394.58L1248.11,1391.6C1255.2,1375.26 1281.86,1300.3 1306.69,1306.34C1306.94,1306.4 1355.05,1364.05 1373.03,1381.88Z" style="fill:rgb(163,226,233);"/>
                <path d="M1298.52,1180.27C1244.88,1201.87 1211.97,1240.81 1187.1,1286.26C1162.78,1330.71 1146.22,1381.43 1124.77,1427.58C1103.71,1472.9 1057.99,1532.55 1025.53,1571.54C1024.42,1572.86 1023.91,1574.58 1024.11,1576.29C1024.32,1578 1025.21,1579.55 1026.59,1580.59L1032.56,1585.07C1034.13,1586.25 1036.18,1586.62 1038.07,1586.08C1065.32,1578.22 1109.57,1575.11 1147.57,1569.11C1174.17,1564.91 1197.78,1559.16 1211.32,1549.97C1232.76,1535.43 1244.06,1508.38 1257.25,1483.82C1268.97,1461.99 1282.26,1442.11 1309.17,1438.83L1308.72,1438.86C1308.97,1438.84 1309.41,1438.79 1310.21,1438.69C1330.75,1447.12 1344.79,1463.46 1357.46,1481.28C1371.35,1500.82 1383.59,1522.16 1399.66,1538.38C1400.84,1539.58 1402.45,1540.25 1404.12,1540.25C1404.12,1540.25 1404.54,1540.97 1408.13,1538.76C1463.51,1544.61 1524.19,1538.74 1579.29,1532.47C1579.9,1532.4 1580.5,1532.24 1581.07,1531.99C1585.96,1529.88 1586.5,1529.65 1586.5,1529.65L1586.49,1529.65C1587.36,1529.28 1588.14,1528.71 1588.77,1527.98C1589.96,1526.6 1590.49,1524.76 1590.23,1522.95C1584.48,1484.23 1556.96,1464.19 1524.51,1448.7C1494.57,1434.4 1460.37,1424.15 1438.41,1403.82C1381.34,1350.96 1350.41,1254.66 1313.57,1185.94C1312.91,1184.71 1311.86,1183.73 1310.59,1183.16C1304.55,1180.47 1303.94,1180.2 1303.88,1180.18C1300.77,1178.79 1299.18,1179.1 1298.52,1180.27ZM1301.21,1192.75L1303.5,1193.77C1340.51,1263.48 1372.38,1359.81 1429.87,1413.05C1452.67,1434.16 1488,1445.2 1519.1,1460.05C1546.35,1473.06 1570.36,1489.07 1576.94,1520.08L1576.94,1520.09C1522.24,1526.29 1462.03,1532.14 1407.26,1526.02C1406.61,1525.95 1405.95,1525.98 1405.32,1526.1C1391.3,1510.84 1380.24,1491.63 1367.71,1474C1353.3,1453.73 1336.99,1435.55 1313.28,1426.38C1312.3,1426 1311.23,1425.87 1310.18,1426.01C1307.84,1426.33 1307.58,1426.36 1307.58,1426.36L1307.58,1426.36C1276.21,1430.22 1259.85,1452.4 1246.18,1477.87C1233.96,1500.61 1224.12,1526.1 1204.26,1539.57C1191.84,1548 1170.03,1552.84 1145.61,1556.69C1110.04,1562.31 1069.07,1565.52 1041.25,1572.24C1073.72,1532.65 1116,1476.28 1136.17,1432.88C1157.51,1386.97 1173.94,1336.5 1198.13,1292.29C1221.32,1249.91 1251.71,1213.32 1301.21,1192.75ZM1372.66,1390.13C1372,1389.56 1371.25,1388.89 1370.43,1388.11C1352.93,1388.03 1335.65,1394.47 1318.65,1397.57C1297.78,1401.38 1276.35,1402.03 1255.23,1400.86C1254.54,1400.82 1253.87,1400.67 1253.24,1400.42L1245.78,1397.43C1244.2,1396.8 1242.94,1395.56 1242.3,1393.99C1241.65,1392.42 1241.67,1390.65 1242.34,1389.09C1247.41,1377.42 1262.38,1336.5 1279.52,1315.08C1288.59,1303.74 1298.79,1297.95 1308.18,1300.24C1308.47,1300.31 1309.74,1300.5 1311.17,1301.93C1311.3,1302.06 1311.91,1302.74 1312.91,1303.91C1320.74,1313.1 1358.74,1358.35 1375.8,1375.74C1377.78,1375.95 1379.55,1377.09 1380.56,1378.82C1382.62,1382.35 1382.83,1382.7 1382.85,1382.74C1388.01,1391.57 1378.73,1392.16 1377.55,1392.2L1377.43,1392.2C1377.43,1392.2 1375.47,1394.17 1372.66,1390.13ZM1303.53,1312.29C1310.72,1320.74 1340.17,1355.73 1359.04,1376.29C1344.66,1378.07 1330.42,1382.64 1316.39,1385.2C1296.84,1388.77 1276.76,1389.4 1256.95,1388.36C1256.95,1388.36 1256.34,1388.12 1256.34,1388.12C1262.61,1372.58 1275.11,1340.72 1289.34,1322.93C1292.42,1319.09 1295.53,1315.93 1298.73,1314C1300.34,1313.02 1301.93,1312.35 1303.53,1312.29ZM1298.5,1180.3C1296,1181.54 1294.61,1184.32 1295.14,1187.1C1295.54,1189.18 1296.94,1190.85 1298.77,1191.66L1301.32,1192.2L1300.97,1191.48C1299.94,1189.31 1297.11,1182.84 1298.5,1180.3Z"/>
            </g>
        </g>
        <g transform="matrix(1.35464,0,0,1.35464,-729.622,-329.357)">
            <g id="R2">
                <path d="M2277.25,1642.49C2285.37,1634.77 2295.28,1624.95 2298.67,1614.5C2314.72,1565.07 2255.9,1514.55 2212.49,1548.39C2154.35,1593.7 2239.69,1612.07 2240.22,1650.21C2240.82,1693.1 2107.24,1726.51 2073.87,1726.44L2067.9,1726.34C2096.5,1666.96 2129.05,1617.41 2139.95,1550.97C2161.19,1421.38 2118.66,1200.41 2282.63,1145.9C2369.79,1116.92 2443.47,1174.04 2449.96,1262.26C2455.49,1337.32 2415.6,1424.53 2347.96,1462.11L2345.58,1465.09C2396.81,1485.97 2436.95,1526.36 2462.27,1575.24C2471.04,1592.16 2487.83,1620.27 2468.85,1633.47C2428.41,1661.58 2329.01,1638.07 2277.25,1642.49C2276.62,1643.08 2276.01,1643.66 2275.41,1644.23L2276.69,1642.54L2277.25,1642.49ZM2277.45,1302.02C2350.39,1253.05 2409.03,1333.78 2360.75,1377.19C2307.49,1425.08 2240.04,1351.51 2270.22,1304.26L2277.45,1302.02Z" style="fill:rgb(163,226,233);"/>
                <path d="M2272.92,1637.93L2272.92,1637.93L2271.8,1638.99L2271.68,1638.75C2271.68,1638.75 2271.55,1638.91 2270.4,1640.44C2268.43,1643.05 2268.78,1646.73 2271.22,1648.92C2273.66,1651.1 2277.36,1651.04 2279.74,1648.79C2279.81,1648.72 2279.88,1648.65 2279.96,1648.58C2310.91,1646.45 2357.65,1653.53 2398.8,1653.8C2428.52,1653.99 2455.41,1650.47 2472.44,1638.63C2482.18,1631.85 2484.85,1622.12 2483.5,1611.36C2481.83,1598.09 2473.4,1583.06 2467.85,1572.35C2443.5,1525.33 2405.75,1486.01 2357.83,1463.59C2423.37,1422.96 2461.74,1336.56 2456.23,1261.8C2452.84,1215.65 2431.74,1177.71 2400.22,1155.03C2368.59,1132.26 2326.4,1124.72 2280.65,1139.93C2196.18,1168.02 2164.46,1238.66 2151.56,1319.29C2139.04,1397.54 2144.37,1485.16 2133.74,1549.95C2122.95,1615.77 2090.57,1664.79 2062.24,1723.61C2061.31,1725.54 2061.43,1727.81 2062.55,1729.64C2063.68,1731.46 2065.65,1732.59 2067.79,1732.62L2073.76,1732.73C2073.8,1732.73 2073.83,1732.73 2073.86,1732.73C2097.76,1732.78 2171.94,1716.11 2214.08,1691C2225.54,1684.17 2234.69,1676.66 2240.19,1668.81C2244.41,1662.8 2246.6,1656.52 2246.51,1650.12C2246.4,1642.82 2243.81,1636.08 2239.63,1629.76C2234.14,1621.46 2225.79,1613.85 2217.78,1606.35C2212.36,1601.29 2207.12,1596.28 2203.36,1591.03C2200.28,1586.73 2198.2,1582.31 2198.53,1577.43C2199.03,1570.24 2204.42,1562.64 2216.35,1553.35C2235.47,1538.45 2257.97,1542.28 2273.94,1555.12C2290.15,1568.16 2299.87,1590.45 2292.7,1612.56C2289.6,1622.1 2280.33,1630.89 2272.92,1637.93L2272.92,1637.93ZM2292.69,1635.65C2297.89,1629.69 2302.47,1623.16 2304.65,1616.44C2313.52,1589.12 2301.86,1561.44 2281.82,1545.32C2261.53,1529.01 2232.92,1524.5 2208.62,1543.43C2191.91,1556.45 2186.12,1567.94 2185.93,1577.93C2185.74,1588.15 2191.46,1597.46 2199.77,1606.3C2206.82,1613.79 2215.71,1621.06 2222.86,1628.84C2228.91,1635.41 2233.82,1642.25 2233.93,1650.3C2234.01,1655.31 2231.5,1660.05 2227.48,1664.66C2222.7,1670.16 2215.82,1675.33 2207.64,1680.2C2169.61,1702.87 2104.24,1718.45 2077.99,1720.02C2105.7,1664.01 2135.71,1615.65 2146.15,1551.98C2156.77,1487.18 2151.45,1399.54 2163.98,1321.27C2176.12,1245.39 2205.12,1178.29 2284.62,1151.86C2326.03,1138.09 2364.25,1144.63 2392.88,1165.23C2421.61,1185.92 2440.6,1220.65 2443.69,1262.72C2449.05,1335.52 2410.51,1420.17 2344.91,1456.61L2347.96,1468.39C2347.96,1468.39 2343.05,1458.18 2343.05,1458.18C2343.05,1458.18 2342.81,1458.48 2340.67,1461.16C2339.43,1462.71 2338.99,1464.75 2339.49,1466.67C2339.99,1468.59 2341.37,1470.16 2343.2,1470.91C2393.05,1491.23 2432.05,1530.57 2456.69,1578.13C2460.9,1586.25 2467.09,1597.03 2469.9,1607.39C2472.09,1615.47 2472.37,1623.37 2465.26,1628.31C2449.94,1638.96 2425.61,1641.4 2398.89,1641.23C2363.07,1640.99 2323.07,1635.72 2292.69,1635.65ZM2276.69,1648.82L2276.51,1644.52L2272.99,1641.37L2276.69,1648.82ZM2274.72,1296.29L2268.37,1298.25C2266.95,1298.69 2265.73,1299.62 2264.93,1300.87C2251.47,1321.94 2255.1,1347.73 2268.5,1367.64C2288.46,1397.33 2329.56,1413.69 2364.96,1381.87C2397.46,1352.64 2386.85,1308.33 2355.43,1289.43C2335.24,1277.3 2306.21,1275.49 2274.72,1296.29ZM2279.3,1308.03C2279.89,1307.85 2280.44,1307.58 2280.95,1307.24C2301.01,1293.78 2319.83,1290.76 2335.23,1294.56C2369.71,1303.06 2386.26,1345.8 2356.55,1372.52C2328.04,1398.15 2295.01,1384.54 2278.93,1360.63C2268.7,1345.41 2265.11,1325.91 2274.37,1309.56C2274.37,1309.56 2279.3,1308.03 2279.3,1308.03Z"/>
            </g>
        </g>
        <g transform="matrix(1,0,0,1,-312.303,0)">
            <g id="E">
                <path d="M2341.28,1258.94C2228.4,1258.89 2155.71,1343.61 2126.45,1445.78C2114.41,1487.79 2109.7,1531.63 2096.8,1573.39C2071.85,1654.19 1996.19,1737.57 2047.56,1823.42C2072.28,1864.74 2116.58,1883.31 2161.47,1894.62C2229.71,1911.81 2326.38,1922.63 2375.32,1861.75C2384.67,1850.11 2394.11,1834.45 2392.94,1818.93C2392.18,1808.88 2381.97,1799.14 2374.42,1793.79C2315.64,1752.12 2212.21,1816.05 2184.57,1754.1C2177.77,1738.88 2179.31,1722.32 2187.03,1707.87C2218.98,1648.1 2343.73,1679.93 2395.89,1678.93C2418.39,1678.5 2466.83,1669.58 2465.13,1639.09C2463.91,1617.14 2451.12,1596.99 2435.82,1582C2393.56,1540.57 2341.63,1557.25 2292.71,1575.01C2283.74,1578.26 2269.34,1586.26 2259.64,1584.68C2243.8,1582.11 2240.54,1538.37 2241.68,1527.6C2255.12,1400.88 2490.24,1504.82 2502.05,1365.77C2507.58,1300.59 2417.78,1255.45 2363.46,1253.89C2325.21,1252.79 2288.85,1263.92 2252.9,1275.56L2341.28,1258.94Z" style="fill:rgb(163,226,233);"/>
                <path d="M2244.66,1273.43C2181.8,1306.15 2139.19,1370.35 2118.26,1443.44C2106.24,1485.39 2101.55,1529.17 2088.67,1570.88C2076.24,1611.13 2051.14,1652 2035.59,1693.52C2019.06,1737.62 2013.07,1782.37 2040.25,1827.8C2066.16,1871.11 2112.34,1891.02 2159.39,1902.88C2201.42,1913.46 2253.97,1921.55 2300.12,1912.94C2332.11,1906.98 2361.06,1893.08 2381.95,1867.09C2392.57,1853.88 2402.75,1835.9 2401.43,1818.29C2400.5,1805.92 2388.64,1793.43 2379.34,1786.84C2348.37,1764.89 2305.75,1769.87 2267.12,1773.06C2253.05,1774.23 2239.59,1775.05 2227.64,1773.66C2212.07,1771.85 2199.25,1766.12 2192.34,1750.63C2186.64,1737.87 2188.07,1723.99 2194.54,1711.88C2206.04,1690.37 2231.32,1682.94 2260.01,1680.64C2307.67,1676.81 2364.88,1688.04 2396.06,1687.44C2410.63,1687.16 2435.26,1683.45 2452.27,1673.51C2465.67,1665.69 2474.5,1654.19 2473.64,1638.61C2472.3,1614.56 2458.55,1592.35 2441.78,1575.91C2396.88,1531.9 2341.78,1548.13 2289.8,1567C2285.3,1568.64 2279.44,1571.46 2273.48,1573.68C2269.05,1575.33 2264.62,1576.87 2261,1576.28C2259.93,1576.11 2259.33,1575.03 2258.58,1573.94C2256.8,1571.37 2255.43,1567.92 2254.3,1564.14C2250.41,1551.16 2249.52,1534.41 2250.15,1528.5C2253.11,1500.51 2268.39,1485.3 2289.7,1476.25C2313.15,1466.28 2343.35,1463.28 2373.46,1459.77C2398.86,1456.8 2424.2,1453.51 2445.88,1446.16C2480.77,1434.32 2506.64,1412.37 2510.53,1366.49C2512.97,1337.76 2498.99,1312.38 2477.03,1292.38C2445.64,1263.78 2397.95,1246.36 2363.7,1245.38C2324.47,1244.25 2287.15,1255.52 2250.28,1267.46C2247.41,1268.38 2245.36,1270.7 2244.66,1273.43ZM2268.2,1281.34C2200.75,1308.79 2155.91,1373.83 2134.63,1448.12C2122.58,1490.19 2117.86,1534.09 2104.94,1575.9C2092.42,1616.45 2067.2,1657.67 2051.53,1699.5C2036.83,1738.75 2030.67,1778.62 2054.86,1819.05C2078.39,1858.38 2120.83,1875.6 2163.55,1886.36C2196.87,1894.75 2237.13,1901.66 2275.03,1898.97C2311.44,1896.38 2345.73,1884.97 2368.68,1856.42C2376.78,1846.34 2385.46,1833 2384.45,1819.57C2384.25,1816.98 2382.93,1814.5 2381.28,1812.15C2378.03,1807.49 2373.34,1803.46 2369.49,1800.73C2353.32,1789.27 2333.38,1786.83 2312.81,1787.06C2290.43,1787.32 2267.28,1790.83 2246.62,1791.35C2215.22,1792.13 2189.37,1785.76 2176.79,1757.57C2168.9,1739.89 2170.55,1720.64 2179.53,1703.85C2193.59,1677.54 2223.55,1666.48 2258.65,1663.66C2306.67,1659.81 2364.31,1671.02 2395.73,1670.41C2408.15,1670.18 2429.19,1667.27 2443.68,1658.81C2451.28,1654.37 2457.12,1648.39 2456.63,1639.56C2455.53,1619.72 2443.7,1601.64 2429.86,1588.08C2390.24,1549.24 2341.48,1566.36 2295.62,1583.01C2290.16,1584.99 2282.7,1588.69 2275.49,1591.01C2269.34,1592.97 2263.3,1593.91 2258.27,1593.09C2251.11,1591.92 2244.84,1585.99 2240.76,1576.67C2233.84,1560.89 2232.34,1534.95 2233.21,1526.7C2236.96,1491.33 2256.12,1472.01 2283.04,1460.57C2307.82,1450.04 2339.66,1446.57 2371.49,1442.85C2395.64,1440.03 2419.78,1437.03 2440.4,1430.03C2468.96,1420.34 2490.37,1402.59 2493.56,1365.05C2495.55,1341.63 2483.46,1321.27 2465.57,1304.97C2437.2,1279.12 2394.16,1263.29 2363.21,1262.4C2358.44,1262.27 2353.7,1262.33 2348.98,1262.56C2347.86,1264.96 2345.63,1266.79 2342.85,1267.31L2268.2,1281.34Z"/>
            </g>
        </g>
        <g transform="matrix(1.35464,0,0,1.35464,-387.185,-329.357)">
            <g id="P">
                <path d="M951.661,1576.37C897.057,1569.35 842.95,1579.19 788.573,1582.55C751.666,1584.83 713.568,1583.02 676.547,1583.02L673.562,1578.55C700.692,1527.93 729.72,1478.87 747.157,1423.77C773.723,1339.82 762.979,1249.58 756.563,1163.38L757.162,1162.03C827.316,1180.15 898.587,1150.3 966.969,1138.33C1007.8,1131.18 1043.72,1122.34 1064.36,1165.74C1083.61,1206.22 1098.48,1336.7 1073.08,1376.06C1032.11,1439.55 919.321,1482.89 867.768,1409.34L864.649,1412.84C879.866,1472.81 921.143,1530.67 963.076,1574.95L951.661,1576.37ZM937.8,1238.17C926.493,1247.26 917.244,1258.21 909.49,1270.46C860.531,1347.83 987.317,1375.13 987.6,1303.85C987.666,1287.22 983.427,1272.99 973.014,1259.89C965.734,1250.73 953.096,1243.25 941.883,1240.15L937.8,1238.17Z" style="fill:rgb(163,226,233);"/>
                <path d="M875.779,1428.32C902.883,1454.11 939.847,1458.88 975.865,1450.2C1017.18,1440.25 1057.08,1412.45 1078.36,1379.46C1088.98,1363.02 1093.26,1331.4 1092.81,1296.6C1092.15,1245.63 1081.82,1187.82 1070.04,1163.04C1047.87,1116.44 1009.73,1124.46 965.885,1132.13C931.664,1138.12 896.719,1148.59 861.553,1155.29C827.333,1161.81 792.898,1164.77 758.734,1155.95C755.76,1155.18 752.667,1156.67 751.419,1159.48C750.879,1160.69 750.82,1160.83 750.82,1160.83C750.82,1160.83 756.563,1169.67 756.563,1169.67C753.272,1169.67 750.538,1167.13 750.294,1163.85C756.652,1249.26 767.489,1338.69 741.164,1421.87C723.846,1476.6 694.968,1525.31 668.022,1575.58C666.926,1577.62 667.045,1580.1 668.332,1582.03C671.019,1586.06 671.287,1586.47 671.314,1586.51C674.607,1591.45 676.547,1589.31 676.547,1589.31C713.696,1589.31 751.926,1591.11 788.96,1588.82C842.943,1585.49 896.653,1575.64 950.86,1582.6C951.384,1582.67 951.914,1582.67 952.438,1582.61L963.853,1581.18C966.206,1580.89 968.193,1579.3 968.993,1577.07C969.794,1574.84 969.27,1572.34 967.64,1570.62C930.392,1531.3 893.577,1481.12 875.779,1428.32ZM678.246,1589.08C677.706,1589.23 677.136,1589.31 676.547,1589.31C676.547,1589.31 677.267,1589.28 678.246,1589.08ZM681.775,1579.53L681.782,1579.54L681.76,1579.51L681.749,1579.49L681.775,1579.53ZM949.749,1569.8C895.67,1563.39 842.058,1572.95 788.186,1576.27C753.106,1578.44 716.945,1576.9 681.664,1576.75C708.226,1527.47 736.142,1479.41 753.15,1425.67C779.237,1343.23 769.852,1254.79 763.363,1169.94C796.801,1176.98 830.452,1174.01 863.907,1167.64C899.01,1160.95 933.892,1150.5 968.053,1144.52C983.994,1141.73 999.162,1138.62 1012.92,1138.67C1031.76,1138.75 1047.65,1145.25 1058.68,1168.44C1070,1192.24 1079.61,1247.81 1080.24,1296.76C1080.65,1328.58 1077.5,1357.61 1067.8,1372.65C1048.11,1403.16 1011.13,1428.78 972.92,1437.98C935.664,1446.96 897.067,1440.19 872.915,1405.74L867.768,1415.63C867.768,1415.63 863.076,1405.16 863.076,1405.16C863.076,1405.16 862.767,1405.51 859.961,1408.65C858.569,1410.21 858.042,1412.36 858.556,1414.38C872.965,1471.16 910.253,1526.15 949.749,1569.8ZM940.539,1232.51C938.354,1231.45 935.754,1231.75 933.861,1233.27C922.012,1242.8 912.304,1254.26 904.178,1267.1C887.656,1293.21 889.64,1314.31 899.523,1328.81C908.787,1342.4 925.502,1350.43 942.341,1351.37C957.711,1352.22 973.037,1347.19 982.929,1335.78C989.541,1328.15 993.831,1317.63 993.886,1303.87C993.958,1285.75 989.285,1270.26 977.935,1255.98C970.009,1246.01 956.374,1237.77 944.12,1234.25C944.123,1234.25 940.539,1232.51 940.539,1232.51ZM938.71,1245.6L939.143,1245.81C939.485,1245.97 939.842,1246.11 940.208,1246.21C950.237,1248.98 961.582,1255.61 968.093,1263.8C977.57,1275.73 981.374,1288.69 981.314,1303.82C981.274,1314.02 978.328,1321.89 973.429,1327.54C966.055,1336.05 954.498,1339.45 943.041,1338.81C930.071,1338.09 917.047,1332.19 909.911,1321.73C902.221,1310.44 901.945,1294.14 914.801,1273.82C921.479,1263.27 929.309,1253.73 938.71,1245.6L938.71,1245.6Z"/>
            </g>
        </g>
    </g>
    <g id="Scissors" transform="matrix(1.28518,0,0,1.28518,-76.6388,-947.175)">
        <g transform="matrix(1,0,0,1,1675.35,-148.513)">
            <g id="S4">
                <path d="M900.04,2037.44C831.282,2070.56 766.119,2112.87 700.91,2152.34L707.483,2159.54C752.743,2235.87 790.338,2317.2 827.998,2397.51L820.421,2401.52C721.811,2443.03 659.303,2486.27 574.769,2551.36L569.46,2546.68C608.237,2504.78 644.838,2460.92 683.406,2418.87L678.693,2414.96C614.854,2290.62 542.492,2170.41 476.434,2047.18L472.39,2033.02C557.04,2044.86 645.804,2051.64 731.28,2047.39C797.538,2044.11 863.154,2034.04 929.479,2031.59" style="fill:rgb(106,68,228);"/>
                <path d="M472.356,2052.74C538.015,2175.02 609.786,2294.38 673.156,2417.8C673.478,2418.43 673.903,2419 674.415,2419.48C637.465,2460.05 602.185,2502.16 564.891,2542.46C563.211,2544.27 562.766,2546.91 563.757,2549.18C564.129,2550.03 564.679,2550.77 565.351,2551.36L565.351,2551.36C565.351,2551.36 565.876,2551.82 570.654,2556.03C572.889,2558 576.207,2558.11 578.567,2556.29C662.631,2491.56 724.774,2448.53 822.836,2407.26C823.004,2407.18 823.169,2407.11 823.33,2407.02C830.15,2403.42 830.9,2403.02 830.9,2403.02L830.89,2403.02C831.84,2402.53 832.659,2401.78 833.252,2400.85C834.394,2399.05 834.539,2396.8 833.634,2394.87C796.319,2315.3 759.059,2234.72 714.386,2158.99C714.06,2157.93 713.337,2156.72 712.075,2155.34C712.075,2155.34 710.61,2153.73 710.61,2153.73C773.492,2115.51 836.437,2074.99 902.741,2043.05C904.463,2042.22 905.63,2040.7 906.069,2038.98C913.939,2038.5 921.819,2038.1 929.708,2037.81C933.142,2037.68 935.826,2034.79 935.699,2031.36C935.572,2027.92 932.682,2025.24 929.249,2025.37C862.898,2027.82 797.256,2037.89 730.972,2041.18C645.881,2045.4 557.52,2038.64 473.252,2026.86C471.166,2026.56 469.075,2027.35 467.692,2028.93C466.31,2030.52 465.826,2032.7 466.404,2034.73C470.045,2047.47 470.409,2048.74 470.445,2048.87C470.987,2050.77 471.658,2051.98 472.356,2052.74ZM482.235,2044.82C548.025,2167.51 620.036,2287.21 683.648,2410.98C683.648,2410.98 687.374,2414.07 687.374,2414.07C692.684,2418.47 690.365,2421.51 687.56,2423.26L687.994,2423.07C656.228,2457.71 625.796,2493.57 594.382,2528.56C668.03,2472.88 728.043,2433.68 817.752,2395.89L819.844,2394.78C783.199,2316.6 746.457,2237.55 702.451,2163.26L696.311,2156.53C695.056,2155.16 694.483,2153.29 694.749,2151.45C695.016,2149.6 696.094,2147.97 697.687,2147.01C757.226,2110.98 816.733,2072.59 878.954,2040.94C829.812,2044.96 780.878,2051.17 731.589,2053.61C648.907,2057.71 563.164,2051.57 480.997,2040.49L482.235,2044.82Z"/>
            </g>
        </g>
        <g id="S" transform="matrix(1,0,0,1,-403.096,-109.317)">
            <path d="M900.04,2037.44C831.282,2070.56 766.119,2112.87 700.91,2152.34L706.977,2152.34C775.546,2219.12 852.023,2277.39 918.622,2346.18L910.665,2343.55C839.543,2384.78 773.051,2433.2 703.507,2476.9C662.035,2502.96 618.021,2524.43 575.527,2548.71L569.46,2546.68C608.237,2504.78 644.838,2460.92 683.406,2418.87L678.693,2414.96C614.854,2290.62 542.492,2170.41 476.434,2047.18L472.39,2033.02C557.04,2044.86 645.804,2051.64 731.28,2047.39C797.538,2044.11 863.154,2034.04 929.479,2031.59" style="fill:rgb(106,68,228);"/>
            <path d="M472.356,2052.74C538.015,2175.02 609.786,2294.38 673.156,2417.8C673.478,2418.43 673.903,2419 674.415,2419.48C637.956,2459.51 603.124,2501.03 566.377,2540.85L566.356,2540.87L566.31,2540.92L564.891,2542.46C563.211,2544.27 562.766,2546.91 563.757,2549.18C564.479,2550.83 565.863,2552.05 567.519,2552.6L567.498,2552.59C567.498,2552.59 568.099,2552.79 573.559,2554.61C575.239,2555.17 577.077,2554.99 578.615,2554.11C621.185,2529.8 665.273,2508.28 706.819,2482.17C775.515,2439 841.227,2391.23 911.373,2350.34L916.671,2352.09C919.391,2352.99 922.373,2351.91 923.895,2349.49C925.418,2347.06 925.087,2343.91 923.095,2341.85C857.56,2274.16 782.473,2216.64 714.757,2151.21C776.255,2113.73 837.891,2074.29 902.741,2043.05C904.463,2042.22 905.63,2040.7 906.069,2038.98C913.939,2038.5 921.819,2038.1 929.708,2037.81C933.142,2037.68 935.826,2034.79 935.699,2031.36C935.572,2027.92 932.682,2025.24 929.249,2025.37C862.898,2027.82 797.256,2037.89 730.972,2041.18C645.881,2045.4 557.52,2038.64 473.252,2026.86C471.166,2026.56 469.075,2027.35 467.692,2028.93C466.31,2030.52 465.826,2032.7 466.404,2034.73C470.045,2047.47 470.409,2048.74 470.445,2048.87C470.987,2050.77 471.658,2051.98 472.356,2052.74ZM482.235,2044.82C548.025,2167.51 620.036,2287.21 683.648,2410.98L687.374,2414.07C692.684,2418.47 690.365,2421.51 687.56,2423.26L687.994,2423.07C654.735,2459.34 622.938,2496.95 589.948,2533.48C626.851,2513.11 664.469,2494.08 700.195,2471.63C768.653,2428.61 834.159,2381.03 904.03,2340.21C840.512,2276.47 769.051,2221.21 704.451,2158.56L700.91,2158.56C698.117,2158.56 695.665,2156.7 694.914,2154.01C694.164,2151.32 695.297,2148.46 697.687,2147.01C757.226,2110.98 816.733,2072.59 878.954,2040.94C829.812,2044.96 780.878,2051.17 731.589,2053.61C648.907,2057.71 563.164,2051.57 480.997,2040.49L482.235,2044.82ZM904.936,2341.12C904.405,2342.37 904.282,2343.79 904.653,2345.17C905.21,2347.24 906.77,2348.83 908.725,2349.47L910.665,2349.78L910.27,2349.1C909.708,2348.1 908.658,2346.14 907.875,2344.09L904.936,2341.12Z"/>
        </g>
        <g id="C1" serif:id="C" transform="matrix(1,0,0,1,-513.691,-109.317)">
            <path d="M1334.04,2377.93C1291.15,2328.44 1170.74,2323.29 1109.41,2318.16L1113.46,2322.21C1158.27,2238.62 1167.39,2188.65 1108.05,2111.39L1105.37,2113.91C1187.34,2107.06 1260.02,2076.9 1335.2,2045.87L1330.51,2042.21C1219.96,2073.53 1108.31,2073.75 994.144,2067.4L994.144,2071.44C1069.33,2174.43 1046.23,2290.51 1016.13,2405.41L1014.37,2409.17C1107.46,2355.99 1216.57,2351.53 1317.9,2377.46" style="fill:rgb(106,68,228);"/>
            <path d="M991.103,2077.87C1062.57,2178.38 1039.54,2291.42 1010.25,2403.29L1008.73,2406.52C1007.58,2408.98 1008.15,2411.9 1010.15,2413.74C1012.14,2415.58 1015.1,2415.92 1017.46,2414.57C1109.12,2362.21 1216.58,2357.96 1316.36,2383.49C1319.68,2384.35 1323.08,2382.34 1323.93,2379.01C1324.14,2378.17 1324.18,2377.33 1324.06,2376.53C1325.93,2378.28 1327.7,2380.11 1329.34,2382.01C1331.59,2384.6 1335.53,2384.88 1338.12,2382.63C1340.72,2380.38 1341,2376.45 1338.75,2373.85C1320.88,2353.24 1290.23,2339.75 1255.64,2330.96C1211.91,2319.84 1161.89,2316.03 1125.23,2313.18C1148.72,2267.33 1160.24,2231.07 1154.65,2193.97C1151.06,2170.16 1140.43,2145.93 1121.08,2118.57C1197.56,2109.46 1266.48,2080.97 1337.58,2051.62L1335.2,2052.09C1335.2,2052.09 1348.31,2048.2 1339.02,2040.96C1338.98,2040.92 1338.56,2040.59 1334.33,2037.3C1332.77,2036.08 1330.72,2035.68 1328.81,2036.22C1218.94,2067.35 1107.96,2067.5 994.49,2061.18C992.782,2061.09 991.11,2061.7 989.867,2062.88C988.624,2064.05 987.919,2065.69 987.919,2067.4L987.919,2071.44C987.919,2075.91 989.523,2077.45 991.103,2077.87ZM1284.31,2059.89C1191.94,2079 1098.66,2079.1 1003.69,2074.15C1072.43,2173.99 1053.41,2285.52 1024.91,2396.38C1115.72,2349.72 1220.02,2346.4 1317.41,2370.92C1300.74,2358.18 1277.71,2349.41 1252.57,2343.02C1207.73,2331.62 1156.16,2328.07 1119.69,2325.23C1119.1,2325.95 1118.3,2326.52 1117.46,2326.98C1116.36,2327.9 1114.95,2328.43 1113.46,2328.43C1113.46,2328.43 1112.44,2329.95 1109.13,2326.68L1109.12,2326.67L1109.11,2326.66L1109.05,2326.61C1109.02,2326.57 1108.65,2326.21 1105.01,2322.57C1103.17,2320.72 1102.67,2317.91 1103.77,2315.55C1104.87,2313.18 1107.33,2311.74 1109.93,2311.96L1111.76,2312.11C1135.4,2266.95 1147.77,2231.89 1142.34,2195.83C1138.75,2172.01 1127.39,2147.84 1106.77,2120.04L1105.89,2120.12C1103.25,2120.34 1100.76,2118.86 1099.68,2116.45C1098.61,2114.03 1099.18,2111.19 1101.1,2109.38C1103.51,2107.11 1103.78,2106.86 1103.78,2106.86C1103.78,2106.86 1108.05,2117.62 1108.05,2117.62L1108.69,2116.31L1104.85,2107.71C1168.45,2102.39 1226.4,2082.87 1284.31,2059.89Z"/>
        </g>
        <g transform="matrix(1,0,0,1,-678.003,-42.9597)">
            <g id="I">
                <path d="M1558.32,2076.57C1534.37,2156.71 1508.22,2241.48 1495.67,2324.23L1493.65,2332.32C1512.71,2344.14 1531.73,2356.01 1550.79,2367.83L1558.1,2368.23C1514.02,2378.24 1471.3,2398.9 1428.76,2414.02C1387,2428.87 1344.14,2439.59 1301.53,2451.64L1299.51,2445.57C1342.93,2417.05 1386.85,2387.7 1427.78,2355.7L1424.16,2349.42C1438.81,2259.61 1461.78,2172.55 1469.39,2081.55L1469.5,2078.45C1439.89,2071 1409.98,2064.93 1380.4,2057.29L1376.36,2051.22C1475.37,2045.71 1574.64,2037.88 1673.7,2033.87L1671.9,2040.85C1628.61,2052.19 1585.52,2064.3 1542.19,2075.49" style="fill:rgb(106,68,228);"/>
                <path d="M1301.38,2457.96L1301.53,2457.86C1301.53,2457.86 1304.9,2458.37 1306.82,2456.62C1348.37,2444.94 1390.12,2434.36 1430.84,2419.89C1473.15,2404.84 1515.64,2384.26 1559.48,2374.3C1562.51,2373.61 1564.57,2370.8 1564.31,2367.7C1564.05,2364.61 1561.54,2362.18 1558.44,2362.01L1552.72,2361.7C1535.4,2350.96 1518.11,2340.18 1500.79,2329.43C1500.79,2329.43 1501.71,2325.75 1501.71,2325.75L1501.71,2325.75C1501.76,2325.56 1501.8,2325.36 1501.83,2325.16C1514.33,2242.69 1540.41,2158.22 1564.28,2078.35C1564.51,2077.59 1564.59,2076.82 1564.53,2076.08C1600.88,2066.47 1637.11,2056.4 1673.48,2046.87C1675.67,2046.3 1677.37,2044.59 1677.93,2042.4C1679.55,2036.11 1679.72,2035.42 1679.72,2035.42L1673.7,2040.09L1667.66,2032.33C1668.33,2029.72 1670.63,2027.76 1673.44,2027.64C1574.36,2031.66 1475.06,2039.5 1376.01,2045.01C1373.78,2045.13 1371.79,2046.44 1370.79,2048.44C1369.79,2050.43 1369.94,2052.82 1371.18,2054.67C1374.82,2060.13 1375.18,2060.68 1375.22,2060.73C1377.89,2064.74 1379.67,2064.05 1380.22,2063.66C1407.7,2070.72 1435.47,2076.46 1462.99,2083.24C1455.22,2173.28 1432.52,2259.5 1418.02,2348.42L1424.16,2355.65C1424.16,2355.65 1418.77,2352.54 1418.77,2352.54C1418.77,2352.54 1419.68,2354.11 1419.68,2354.11C1380.1,2384.73 1337.87,2412.93 1296.1,2440.37C1293.74,2441.92 1292.71,2444.86 1293.61,2447.54L1295.62,2453.58L1295.63,2453.61L1295.71,2453.83C1297.72,2459.61 1300.66,2458.37 1301.38,2457.96ZM1645.84,2041.32C1564.32,2045.17 1482.69,2051.22 1401.21,2056.03C1424.46,2061.59 1447.83,2066.58 1471.02,2072.41C1473.89,2073.14 1475.83,2075.77 1475.72,2078.68L1475.72,2078.68C1475.72,2078.68 1475.71,2078.99 1475.61,2081.78C1475.6,2081.88 1475.6,2081.98 1475.59,2082.07C1468.03,2172.49 1445.35,2259.04 1430.66,2348.24L1433.17,2352.58C1434.72,2355.27 1434.06,2358.69 1431.62,2360.6C1395.49,2388.85 1357.05,2415.03 1318.68,2440.39C1354.92,2430.39 1391.19,2420.77 1426.67,2408.16C1463.32,2395.13 1500.12,2378.04 1537.79,2367.09C1521.98,2357.27 1506.19,2347.42 1490.37,2337.61C1488.07,2336.18 1486.96,2333.44 1487.61,2330.81L1489.57,2323C1501.92,2241.73 1527.3,2158.54 1550.9,2079.66L1543.75,2081.51C1540.42,2082.37 1537.02,2080.37 1536.16,2077.04C1535.3,2073.72 1537.31,2070.32 1540.63,2069.46C1575.78,2060.38 1610.77,2050.71 1645.84,2041.32ZM1382.11,2063.28C1381.13,2063.48 1380.4,2063.51 1380.4,2063.51C1380.99,2063.51 1381.57,2063.43 1382.11,2063.28Z"/>
            </g>
        </g>
        <g transform="matrix(1,0,0,1,-616.386,-139.335)">
            <g id="S2">
                <path d="M1924.06,2206.09C1852.9,2221.88 1786.92,2261.45 1716.11,2279.74L1706,2279.74C1767.95,2279.74 1841.73,2285.3 1893.48,2323L1900.37,2333.89C1765.14,2368.9 1640.47,2416.81 1513.88,2475.9L1509.83,2467.82C1589.3,2411.04 1679.59,2364.6 1771.09,2330.65L1772.24,2331.07C1703.86,2302.19 1630.01,2269 1574.55,2219.07L1572.52,2210.98C1646.67,2185.18 1767.84,2167.9 1845.79,2174.69C1879.65,2177.64 1910.01,2188.99 1941.99,2199.33" style="fill:rgb(106,68,228);"/>
                <path d="M1513.76,2482.22L1513.88,2482.13C1513.88,2482.13 1518.09,2482.32 1519.89,2479.97C1644.96,2421.76 1768.28,2374.52 1901.93,2339.91C1903.86,2339.41 1905.43,2338.02 1906.16,2336.18C1906.89,2334.33 1906.7,2332.24 1905.63,2330.56C1899.43,2320.76 1898.81,2319.78 1898.75,2319.68L1898.72,2319.63L1898.68,2319.57L1898.65,2319.53C1897.55,2317.83 1896.69,2317.14 1896,2317.14C1856.03,2288.55 1803.5,2278.23 1753.1,2274.92C1810.79,2254.83 1866.31,2225.28 1925.41,2212.17C1928.77,2211.42 1930.88,2208.1 1930.14,2204.74C1929.83,2203.34 1929.07,2202.15 1928.04,2201.3C1932.03,2202.62 1936.04,2203.95 1940.08,2205.25C1943.35,2206.31 1946.86,2204.51 1947.91,2201.24C1948.97,2197.97 1947.17,2194.46 1943.9,2193.4C1911.48,2182.92 1880.67,2171.48 1846.33,2168.49C1767.64,2161.64 1645.33,2179.05 1570.48,2205.1C1567.43,2206.16 1565.7,2209.37 1566.48,2212.49C1568.3,2219.77 1568.49,2220.5 1568.5,2220.57C1569.56,2224.78 1571.36,2225.74 1572.72,2225.78C1624.24,2271.33 1690.9,2303.03 1754.48,2330.28C1667.45,2363.87 1581.94,2408.64 1506.21,2462.75C1503.72,2464.53 1502.89,2467.86 1504.26,2470.6C1507.9,2477.88 1508.27,2478.61 1508.31,2478.68L1508.32,2478.7L1508.35,2478.76L1508.39,2478.84C1510.92,2483.78 1513.22,2482.6 1513.76,2482.22ZM1715.3,2273.52C1785.89,2255.13 1851.73,2215.76 1922.71,2200.01C1923.05,2199.94 1923.39,2199.89 1923.72,2199.88C1898.02,2191.39 1872.82,2183.29 1845.25,2180.89C1769.89,2174.33 1653.77,2190.49 1579.95,2215.03L1580.12,2215.7C1634.92,2264.48 1707.48,2296.96 1774.66,2325.34L1774.65,2325.4C1783.27,2329.51 1773.67,2336.33 1772.38,2337.2L1772.24,2337.3C1772.24,2337.3 1772.19,2337.45 1771.26,2337.23C1686.8,2368.74 1603.43,2410.94 1528.8,2462.13C1647.17,2407.78 1764.36,2363.29 1890.56,2330.02L1888.87,2327.35C1838.2,2291.02 1766.34,2285.97 1706,2285.97L1706,2273.52L1715.3,2273.52ZM1580.59,2217.6L1580.6,2217.63L1580.6,2217.62L1580.59,2217.6Z"/>
            </g>
        </g>
        <g transform="matrix(1,0,0,1,-722.241,-134.595)">
            <g id="S3">
                <path d="M1890.03,2473.88C1942.32,2453.69 1995.81,2435.21 2046.41,2410.99C2121.73,2374.94 2195.49,2332.47 2273.16,2301.74L2272.36,2297.93C2231.21,2295.58 2190.76,2299.47 2149.71,2293.23C2094.68,2284.86 2042.41,2262.75 1989.12,2247.38L1981.03,2243.34C2127.79,2183.53 2295,2154.26 2452.63,2171.11L2446.78,2175.85C2338.72,2190.25 2240.92,2230.8 2128.66,2243.34L2205.38,2233.97C2211.76,2234.87 2218.12,2235.78 2224.49,2236.81L2227.75,2239.29C2311.63,2251.03 2427.89,2262.91 2466.58,2352.3L2460.94,2359.34C2430.85,2355.31 2401.9,2349.79 2371.35,2350.01C2239.79,2350.96 2089.72,2407.86 1964.85,2447.59" style="fill:rgb(106,68,228);"/>
                <path d="M1988.74,2253.76C2041.83,2269.18 2093.95,2291.05 2148.77,2299.38C2183.54,2304.66 2217.88,2302.75 2252.56,2303.43C2181.43,2333.39 2113.23,2372.11 2043.72,2405.37C1993.27,2429.52 1939.93,2447.94 1887.78,2468.08C1884.58,2469.31 1882.98,2472.92 1884.22,2476.12C1885.45,2479.33 1889.06,2480.93 1892.27,2479.69C1915.44,2470.74 1938.85,2462.12 1962.15,2453.2C1963.53,2453.87 1965.16,2454.03 1966.74,2453.52C2091.05,2413.97 2240.43,2357.18 2371.39,2356.23C2401.65,2356.02 2430.32,2361.52 2460.11,2365.51C2460.39,2365.54 2460.66,2365.56 2460.94,2365.56C2460.94,2365.56 2462.43,2367.43 2465.8,2363.22C2465.85,2363.16 2466.36,2362.53 2471.43,2356.19C2472.88,2354.39 2473.21,2351.94 2472.29,2349.83C2452.22,2303.47 2412.22,2277 2366.18,2260.8C2321.96,2245.26 2272.21,2239.2 2230.23,2233.36L2228.29,2231.88C2301.99,2214.77 2372.31,2192.05 2447.6,2182.02C2448.74,2181.87 2449.81,2181.4 2450.7,2180.68C2455.96,2176.41 2456.54,2175.95 2456.54,2175.95L2456.54,2175.95C2457.86,2174.88 2458.74,2173.27 2458.84,2171.44C2459.02,2168.13 2456.58,2165.27 2453.29,2164.92C2294.66,2147.97 2126.37,2177.39 1978.68,2237.58C1976.42,2238.5 1974.9,2240.66 1974.81,2243.1C1974.71,2245.54 1976.06,2247.81 1978.25,2248.91C1985.53,2252.55 1986.25,2252.91 1986.33,2252.95C1987.68,2253.62 1988.38,2253.77 1988.74,2253.76ZM2416.34,2174.28C2275.5,2165.45 2128.87,2192.17 1997.66,2243.41C2048.35,2258.56 2098.24,2279.11 2150.64,2287.07C2191.51,2293.28 2231.76,2289.37 2272.71,2291.72C2274.43,2291.82 2275.94,2292.6 2277,2293.79C2277.52,2293.88 2278.01,2294.66 2278.41,2296.5L2278.43,2296.58L2278.45,2296.65C2278.45,2296.68 2278.53,2297.03 2279.25,2300.45C2279.88,2303.42 2278.27,2306.41 2275.45,2307.53C2204.39,2335.64 2136.61,2373.62 2067.9,2407.46C2167.49,2375.33 2274.41,2344.48 2371.3,2343.78C2400.97,2343.57 2429.15,2348.69 2458.29,2352.69L2459.34,2351.38C2440.24,2310.47 2403.64,2287.18 2362.05,2272.55C2318.05,2257.08 2268.45,2251.28 2226.89,2245.46C2225.83,2245.31 2224.83,2244.89 2223.98,2244.24L2221.96,2242.71C2216.42,2241.83 2210.88,2241.03 2205.32,2240.25C2173.86,2244.09 2155.31,2246.35 2144.38,2247.67C2139.4,2248.34 2134.39,2248.96 2129.35,2249.53C2129.23,2249.54 2129.12,2249.55 2129,2249.55L2128.66,2249.56L2127.97,2237.15L2127.98,2237.15L2127.98,2237.15L2141.39,2235.51C2237.8,2222.76 2324.07,2190.56 2416.34,2174.28ZM1995.1,2249.09C1993.19,2251.7 1989.12,2253.61 1989.12,2253.61C1991.93,2253.61 1994.35,2251.73 1995.1,2249.09Z"/>
            </g>
        </g>
        <g transform="matrix(1,0,0,1,-442.379,-6.3197)">
            <g id="O1" serif:id="O">
                <path d="M2101.46,2082.7C2214.25,2106.25 2329.74,2076.99 2441.96,2063.56L2454.62,2068.94C2440.53,2085.75 2422.83,2099.14 2408.76,2115.99C2344.8,2192.57 2393.18,2230.39 2447.52,2287.72L2441.69,2291.46C2411.14,2293.96 2380.98,2286.75 2350.66,2284.38C2295.94,2280.09 2238.45,2287.58 2186.65,2305.92L2183.46,2309.64C2180.67,2313.06 2177.7,2316.54 2174.51,2320.08L2183.46,2309.64C2268.27,2205.34 2165.03,2158.57 2101.46,2082.7C2099.52,2082.3 2097.58,2081.88 2095.64,2081.44L2100.34,2081.36C2100.71,2081.81 2101.08,2082.26 2101.46,2082.7ZM2271.3,2247.32L2271.58,2245.25C2293.28,2234.7 2315.51,2234.21 2339,2237.49L2336.11,2230.93C2309.69,2179.9 2311.2,2163.29 2360.56,2134.02L2358.2,2134.36C2319.85,2147.26 2274.54,2170.15 2233.16,2164.36L2231.14,2166.38C2250.42,2186.75 2273.83,2217.35 2271.3,2247.32L2270.59,2252.55C2270.92,2250.81 2271.15,2249.06 2271.3,2247.32Z" style="fill:rgb(106,68,228);"/>
                <path d="M2439.37,2057.61C2328.4,2071.05 2214.24,2099.89 2102.73,2076.61L2102.73,2076.61L2102.73,2076.61L2100.23,2076.08L2100.22,2075.14C2100.22,2075.14 2099.76,2075.14 2095.53,2075.22C2092.38,2075.28 2089.77,2077.68 2089.45,2080.81C2089.13,2083.94 2091.2,2086.82 2094.28,2087.51C2095.54,2087.8 2096.81,2088.08 2098.08,2088.35C2123.3,2118.03 2154.4,2143.31 2177.55,2169.45C2194.27,2188.32 2206.83,2207.54 2208.97,2229.57C2211.1,2251.56 2202.7,2276.09 2178.68,2305.65C2178.68,2305.65 2169.79,2316.02 2169.79,2316.02C2167.57,2318.61 2167.84,2322.5 2170.4,2324.75C2172.97,2327 2176.86,2326.77 2179.14,2324.24C2182.38,2320.64 2185.41,2317.11 2188.24,2313.63C2188.23,2313.63 2190.29,2311.24 2190.29,2311.24C2240.87,2293.58 2296.86,2286.41 2350.17,2290.58C2380.66,2292.97 2410.99,2300.11 2441.7,2297.7C2441.78,2297.82 2442.37,2298.42 2445.06,2296.7C2445.11,2296.66 2445.64,2296.33 2450.89,2292.96C2452.45,2291.95 2453.48,2290.31 2453.7,2288.47C2453.93,2286.63 2453.32,2284.78 2452.04,2283.43C2433.22,2263.58 2415.1,2246.12 2402.24,2228.52C2390.22,2212.08 2382.86,2195.62 2384.84,2176.67C2386.58,2160.05 2395.38,2141.72 2413.53,2119.98C2427.61,2103.13 2445.3,2089.74 2459.39,2072.94C2460.66,2071.43 2461.14,2069.41 2460.67,2067.49C2460.21,2065.57 2458.87,2063.98 2457.05,2063.21C2445.66,2058.37 2444.52,2057.89 2444.4,2057.84C2441.69,2056.69 2440.15,2056.79 2439.37,2057.61ZM2441.06,2069.94L2444.23,2071.29C2431.25,2085.26 2416.24,2097.32 2403.98,2112C2383.76,2136.21 2374.4,2156.86 2372.46,2175.37C2370.16,2197.42 2378.21,2216.74 2392.19,2235.87C2403.92,2251.91 2419.88,2267.88 2436.84,2285.55C2408.11,2287.05 2379.7,2280.41 2351.14,2278.17C2301.76,2274.3 2250.15,2279.88 2202.35,2294.24C2218.14,2269.54 2223.26,2247.95 2221.36,2228.36C2218.98,2203.84 2205.48,2182.2 2186.87,2161.19C2166.9,2138.65 2140.99,2116.75 2118.09,2092.1C2225.29,2109.36 2334.64,2082.81 2441.06,2069.94ZM2338.87,2243.8C2338.44,2244.08 2337.06,2244.77 2335.45,2243.29C2315.3,2240.73 2296.1,2241.2 2277.35,2249.44C2277.19,2250.87 2276.97,2252.29 2276.71,2253.71C2276.08,2257.03 2272.92,2259.24 2269.59,2258.7C2266.26,2258.15 2263.97,2255.06 2264.42,2251.71C2264.42,2251.71 2265.11,2246.64 2265.11,2246.63C2267.4,2218.39 2244.79,2189.86 2226.62,2170.66C2224.3,2168.21 2224.35,2164.36 2226.74,2161.98C2228.55,2160.16 2228.76,2159.96 2228.76,2159.96C2228.76,2159.96 2233.16,2170.58 2233.16,2170.58L2234.02,2158.19C2274.49,2163.85 2318.71,2141.08 2356.21,2128.46C2354.61,2128.99 2353.36,2130.13 2352.64,2131.54L2354.92,2130.15L2357.36,2128.68L2357.33,2128.19C2357.33,2128.19 2357.56,2128.16 2359.7,2127.86C2362.63,2127.45 2365.45,2129.16 2366.44,2131.96C2367.42,2134.76 2366.29,2137.86 2363.74,2139.38C2341.15,2152.77 2328.96,2162.72 2325.99,2175.7C2322.98,2188.87 2329.38,2204.39 2341.64,2228.07C2341.7,2228.18 2341.76,2228.3 2341.81,2228.42C2344.41,2234.32 2344.67,2234.91 2344.69,2234.97C2348.9,2244.52 2339,2243.71 2339,2243.71L2338.87,2243.8ZM2324.84,2153.15C2318.98,2159.58 2315.43,2166.01 2313.85,2172.93C2310.53,2187.43 2315.88,2204.75 2328.68,2230.05C2311.02,2228.56 2294,2229.75 2277.31,2236.02C2274.7,2212.57 2259.49,2189.42 2244.09,2171.45C2270.72,2172.02 2298.54,2162.84 2324.84,2153.15ZM2439.04,2058.06C2436.95,2059.17 2435.6,2061.43 2435.74,2063.93C2435.89,2066.36 2437.42,2068.4 2439.54,2069.3L2441.96,2069.79L2441.6,2069.08C2440.57,2066.95 2437.7,2060.61 2439.04,2058.06ZM2439.62,2069.33L2439.63,2069.34L2439.58,2069.31L2439.62,2069.33Z"/>
            </g>
        </g>
        <g transform="matrix(1,0,0,1,-886.553,-163.034)">
            <g id="R1" serif:id="R">
                <path d="M2986.11,2336.37C3004.05,2369.83 3023.92,2402.23 3041.78,2435.7L3042.12,2431.57C3041.4,2420.74 3041.02,2409.91 3040.72,2399.06L3040.71,2403.57C3035.39,2357.34 3030.24,2311.5 3022.51,2265.58L3028.58,2259.52C3053.58,2269.7 3078.45,2281.05 3102.1,2294.1L3103.41,2295.92C3133.05,2240.92 3164.55,2182.33 3210.08,2138.65L3206.76,2138.77C3099.25,2130.42 3001.35,2156.3 2897.13,2178.62L2895.11,2180.65C2905.97,2245.22 2916.72,2387.82 2872.62,2442.9L2874.89,2441.53C2912.64,2453.08 2953.02,2461.96 2989.49,2477.09L2992.87,2476.08C2976.09,2410.39 2974.73,2336.54 2984.09,2269.63L2990.16,2192.78C2992.03,2209.59 2990.82,2226.68 2992.86,2243.42C2993.09,2245.3 2996.18,2241.6 2997.82,2240.66C3001.74,2238.41 3005.66,2236.17 3009.59,2233.96C3019.58,2228.35 3029.4,2222.44 3039.4,2216.84C3048.62,2211.68 3118.54,2176.22 3120.73,2171.11C3122.21,2167.66 3113.22,2171.06 3109.47,2171.03C3098.49,2170.95 3087.56,2171.16 3076.64,2172.42C3047.36,2175.8 3018.67,2179.78 2991.17,2190.78" style="fill:rgb(106,68,228);"/>
                <path d="M2984.56,2346.57C3001.43,2377.47 3019.72,2407.59 3036.28,2438.63C3037.37,2440.66 3039.48,2441.93 3041.78,2441.93C3041.78,2441.93 3047.28,2444.62 3047.98,2436.21C3047.98,2436.17 3048.01,2435.8 3048.32,2432.08C3048.35,2431.77 3048.35,2431.47 3048.33,2431.16C3047.62,2420.41 3047.24,2409.65 3046.94,2398.88C3046.91,2397.81 3046.61,2396.8 3046.1,2395.93C3041.17,2353.01 3036.25,2310.39 3029.18,2267.72L3030.05,2266.85C3053.11,2276.36 3076.01,2286.89 3097.87,2298.87L3098.35,2299.55C3099.61,2301.3 3101.67,2302.27 3103.81,2302.13C3105.95,2301.99 3107.87,2300.76 3108.89,2298.87C3138.23,2244.43 3169.32,2186.38 3214.39,2143.14L3210.08,2144.88C3210.08,2144.88 3209.85,2132.43 3209.85,2132.43C3209.85,2132.43 3206.89,2132.53 3206.89,2132.53C3098.91,2124.23 3000.52,2150.11 2895.83,2172.54L2897.13,2184.85C2897.13,2184.85 2892.73,2174.23 2892.73,2174.23C2892.73,2174.23 2892.53,2174.43 2890.71,2176.25C2889.28,2177.67 2888.64,2179.7 2888.97,2181.68C2895.43,2220.05 2901.85,2286.23 2896.52,2344.83C2893.05,2382.89 2884.78,2417.75 2867.76,2439.01C2866.26,2440.88 2865.97,2443.44 2867.01,2445.6C2868.04,2447.75 2870.22,2449.12 2872.62,2449.12C2872.62,2449.12 2872.88,2449.64 2875.62,2448.25C2912.45,2459.38 2951.64,2468.13 2987.11,2482.84C2987.87,2483.16 2988.68,2483.32 2989.49,2483.32C2989.49,2483.32 2989.56,2483.57 2994.66,2482.05C2997.85,2481.09 2999.73,2477.78 2998.9,2474.54C2988.5,2433.83 2984.11,2389.95 2984.56,2346.57ZM3195.72,2144.26C3094.16,2138.45 3000.84,2162.66 2901.96,2183.95C2908.28,2223.58 2914.16,2288.37 2908.91,2345.95C2905.66,2381.75 2897.98,2414.76 2883.84,2437.72C2917.18,2447.58 2952.22,2455.85 2984.6,2468.42C2969.78,2404.38 2968.89,2333.49 2977.9,2268.96L2983.95,2192.29C2984.05,2191.06 2984.5,2189.94 2985.2,2189.02C2985.72,2187.25 2987.01,2185.73 2988.86,2184.99C3016.88,2173.79 3046.09,2169.68 3075.92,2166.24C3087.1,2164.95 3098.28,2164.73 3109.51,2164.8C3111.42,2164.82 3114.8,2163.78 3117.17,2163.48C3119.97,2163.14 3122.21,2163.64 3123.45,2164.31C3124.98,2165.14 3126,2166.33 3126.59,2167.78C3127.17,2169.18 3127.51,2171.1 3126.45,2173.57C3126.1,2174.39 3125.3,2175.68 3123.71,2177.05C3122.17,2178.39 3119.34,2180.33 3115.57,2182.64C3096.2,2194.53 3049.84,2218.13 3042.44,2222.27C3032.45,2227.87 3022.63,2233.77 3012.64,2239.39C3008.72,2241.59 3004.82,2243.82 3000.92,2246.06C2999.9,2246.64 2998.33,2248.33 2997.27,2248.98C2995.8,2249.87 2994.42,2250.15 2993.41,2250.17C2992.87,2250.18 2992.36,2250.13 2991.88,2250.02L2990.3,2270.04C2990.26,2270.65 2990.18,2271.2 2990.09,2271.68C2987.46,2290.76 2985.71,2310.41 2984.96,2330.25C2987.55,2329.76 2990.28,2330.97 2991.6,2333.42C3005.46,2359.29 3020.48,2384.52 3034.84,2410.11L3034.74,2407.31L3034.67,2405.03C3034.6,2404.79 3034.56,2404.53 3034.53,2404.28C3029.22,2358.16 3024.08,2312.43 3016.38,2266.62C3016.88,2269.61 3019.48,2271.81 3022.51,2271.81C3022.51,2271.81 3018.12,2261.18 3018.12,2261.18C3018.12,2261.18 3018.72,2260.58 3024.18,2255.12C3025.95,2253.35 3028.61,2252.81 3030.93,2253.75C3054.84,2263.5 3078.63,2274.3 3101.36,2286.6C3128.08,2237.08 3156.71,2185.31 3195.72,2144.26ZM3100.12,2177.28C3092.52,2177.38 3084.93,2177.73 3077.35,2178.6C3049.75,2181.79 3022.68,2185.47 2996.67,2195.32C2997.8,2207.92 2997.41,2220.66 2998.2,2233.27C3000.97,2231.68 3003.75,2230.1 3006.54,2228.53C3016.53,2222.92 3026.36,2217.01 3036.36,2211.41C3042.73,2207.84 3078.25,2189.73 3100.12,2177.28Z"/>
            </g>
        </g>
    </g>
</svg>
