<?xml version="1.0" encoding="UTF-8" standalone="no"?>
<!DOCTYPE svg PUBLIC "-//W3C//DTD SVG 1.1//EN" "http://www.w3.org/Graphics/SVG/1.1/DTD/svg11.dtd">
<svg width="100%" height="100%" viewBox="0 0 3300 2550" version="1.1" xmlns="http://www.w3.org/2000/svg" xmlns:xlink="http://www.w3.org/1999/xlink" xml:space="preserve" xmlns:serif="http://www.serif.com/" style="fill-rule:evenodd;clip-rule:evenodd;stroke-linejoin:round;stroke-miterlimit:2;">
    <g transform="matrix(2.59145,0,0,2.59145,-9184.46,-804.985)">
        <path d="M4235.58,336.806C4156.28,321.781 4050.93,361.601 3974.45,383.119C3924.68,397.123 3874.57,409.32 3825.28,425.004L3827.47,426.481C3755.08,466.435 3709.96,518.474 3678.05,594.877L3679.67,601.349C3702.18,632.854 3732.55,660.463 3752.43,693.562L3746.41,701.655C3720.5,816.682 3703.14,932.743 3691.01,1049.87L3689.78,1055.56C3786.86,1102.32 3872.13,1169.67 3967.23,1220.15C3997.66,1236.3 4031.84,1243.18 4063.42,1256.53L4063.1,1259.81C4083.35,1246.21 4103.21,1232.06 4122.79,1217.52L4124.58,1220.98C4208.13,1206.92 4287.58,1202.57 4372.11,1202.94L4376.96,1208.04C4416.89,1227.27 4455.43,1249.99 4493.41,1272.76L4498.3,1279.23C4572.19,1241.41 4643.59,1198.37 4714.93,1156.04L4713.56,1153.6C4695.12,1114.55 4678.34,1074.77 4661.7,1034.93L4659.89,1037.16C4640.69,907.354 4623.93,777.042 4598.6,648.266L4598,638.389C4562.67,604.837 4521.48,576.693 4483.55,546.127C4427.77,501.176 4373.76,454.127 4318.18,409.049C4292.77,388.441 4264.51,370.187 4241.06,347.347" style="fill:rgb(126,114,106);"/>
        <path d="M3822.3,425.832C3751.4,465.875 3706.85,517.897 3675.2,593.688C3674.95,594.301 3674.9,594.981 3675.06,595.626C3676.51,601.45 3676.66,602.033 3676.67,602.091C3677.05,603.59 3677.61,604.258 3678.15,604.523C3700.1,634.829 3729.16,661.615 3748.71,693.388L3743.93,699.811C3743.67,700.157 3743.49,700.555 3743.39,700.977C3717.48,816.065 3700.1,932.187 3687.96,1049.38L3686.76,1054.91C3686.46,1056.3 3687.16,1057.72 3688.44,1058.34C3785.49,1105.08 3870.71,1172.42 3965.78,1222.87C3995.63,1238.71 4029.05,1245.68 4060.13,1258.5L4060.03,1259.51C4059.91,1260.7 4060.49,1261.85 4061.51,1262.46C4062.54,1263.07 4063.83,1263.04 4064.82,1262.37C4084.11,1249.42 4103.04,1235.97 4121.71,1222.16L4121.83,1222.4C4122.45,1223.59 4123.77,1224.25 4125.09,1224.03C4208.03,1210.07 4286.92,1205.7 4370.78,1206.02L4374.72,1210.17C4374.98,1210.44 4375.28,1210.66 4375.62,1210.82C4415.28,1229.93 4453.58,1252.49 4491.31,1275.1L4495.84,1281.09C4496.74,1282.28 4498.37,1282.65 4499.7,1281.97C4573.46,1244.23 4644.74,1201.28 4715.95,1159.02C4717.34,1158.76 4719.46,1157.83 4717.62,1154.53C4717.62,1154.53 4716.31,1152.19 4716.31,1152.19C4697.91,1113.21 4681.15,1073.51 4664.55,1033.74L4662.88,1036.25C4643.71,906.606 4626.96,776.47 4601.67,647.873L4601.08,638.199C4601.03,637.42 4600.69,636.688 4600.12,636.151C4564.74,602.541 4523.49,574.342 4485.49,543.723C4429.71,498.774 4375.7,451.727 4320.12,406.652C4294.79,386.101 4266.6,367.911 4243.22,345.136C4241.99,343.947 4240.04,343.973 4238.85,345.193C4237.66,346.414 4237.69,348.37 4238.91,349.559C4262.43,372.463 4290.75,390.78 4316.23,411.447C4371.82,456.527 4425.83,503.578 4481.62,548.531C4519.17,578.791 4559.93,606.665 4594.99,639.793C4594.99,639.793 4595.52,648.446 4595.52,648.446C4595.56,649.087 4595.66,649.601 4595.8,650.01C4620.99,778.372 4637.7,908.243 4656.84,1037.61C4657.01,1038.82 4657.89,1039.81 4659.07,1040.13C4659.56,1040.27 4660.07,1040.28 4660.55,1040.17C4676.65,1078.7 4692.94,1117.15 4710.77,1154.92L4710.77,1154.92C4641.09,1196.28 4571.32,1238.26 4499.2,1275.3C4499.2,1275.3 4495.88,1270.91 4495.88,1270.91L4495.87,1270.89L4495.85,1270.87L4495.83,1270.84C4495.19,1270.02 4494.72,1269.7 4494.36,1269.73C4456.66,1247.14 4418.41,1224.61 4378.81,1205.5C4378.81,1205.5 4374.35,1200.82 4374.35,1200.82L4374.31,1200.78L4374.3,1200.76L4374.29,1200.76C4373.38,1199.82 4372.78,1199.62 4372.4,1199.87C4372.31,1199.86 4372.21,1199.85 4372.12,1199.85C4288.16,1199.49 4209.21,1203.77 4126.29,1217.57C4126.29,1217.57 4125.54,1216.11 4125.54,1216.11C4123.42,1212.01 4122.91,1218.53 4122.81,1220.22L4122.79,1220.61C4122.79,1220.61 4120.05,1218.94 4120.05,1218.94L4120.05,1218.95C4119.98,1218.81 4119.91,1218.65 4119.86,1218.49C4119.44,1217.23 4119.88,1215.84 4120.95,1215.04C4102.78,1228.53 4084.37,1241.69 4065.64,1254.38C4065.36,1254.09 4065.01,1253.85 4064.62,1253.68C4033.13,1240.37 3999.03,1233.53 3968.68,1217.42C3874.25,1167.31 3789.52,1100.57 3693.31,1053.84C3693.31,1053.84 3694.03,1050.53 3694.03,1050.53L3694.03,1050.53C3694.05,1050.41 3694.07,1050.3 3694.08,1050.19C3706.18,933.399 3723.48,817.672 3749.27,702.973C3749.27,702.973 3754.9,695.414 3754.9,695.414L3754.9,695.414C3754.98,695.309 3755.06,695.198 3755.12,695.082C3755.67,694.114 3755.65,692.925 3755.08,691.972C3735.26,658.97 3705.04,631.401 3682.52,600.026L3681.3,595.124C3712.89,519.924 3757.53,468.613 3828.96,429.183L3827.47,429.568C3827.47,429.568 3830.9,428.348 3831,426.434C3878.71,411.481 3927.16,399.631 3975.29,386.091C4051.36,364.687 4156.12,324.894 4235.01,339.839C4236.68,340.156 4238.3,339.055 4238.61,337.381C4238.93,335.707 4237.83,334.09 4236.15,333.773C4156.44,318.669 4050.5,358.516 3973.62,380.147C3923.81,394.16 3873.66,406.368 3824.34,422.062C3823.21,422.421 3822.39,423.394 3822.22,424.567C3822.16,424.998 3822.19,425.428 3822.3,425.832ZM4661.7,1038.02L4662.63,1036.62L4660.8,1036.12L4661.7,1038.02Z"/>
    </g>
    <g transform="matrix(2.59145,0,0,2.59145,-9184.46,-804.985)">
        <path d="M3897.92,591.899C3899.35,574.802 3901.81,558.318 3906.53,541.777C3907,540.139 3906.05,538.429 3904.41,537.961C3902.77,537.493 3901.06,538.443 3900.59,540.082C3895.76,557.013 3893.23,573.884 3891.77,591.384C3891.62,593.082 3892.89,594.576 3894.59,594.718C3896.28,594.86 3897.78,593.597 3897.92,591.899Z"/>
    </g>
    <g transform="matrix(2.59145,0,0,2.59145,-9184.46,-804.985)">
        <path d="M3907.44,542.938C3917.85,544.1 3928.26,545.049 3938.64,546.486C3940.32,546.719 3941.88,545.539 3942.12,543.851C3942.35,542.164 3941.17,540.604 3939.48,540.37C3929.06,538.926 3918.59,537.97 3908.13,536.802C3906.43,536.613 3904.91,537.835 3904.72,539.528C3904.53,541.221 3905.75,542.749 3907.44,542.938Z"/>
    </g>
    <g transform="matrix(2.59145,0,0,2.59145,-9184.46,-804.985)">
        <path d="M3959.75,724.817C3963.43,746.692 3967.09,768.569 3970.95,790.415C3971.24,792.093 3972.85,793.215 3974.52,792.919C3976.2,792.623 3977.32,791.021 3977.03,789.343C3973.18,767.513 3969.51,745.652 3965.84,723.792C3965.55,722.112 3963.96,720.978 3962.28,721.26C3960.6,721.543 3959.47,723.137 3959.75,724.817Z"/>
    </g>
    <g transform="matrix(2.59145,0,0,2.59145,-9184.46,-804.985)">
        <path d="M3963.15,723.441C3978.64,710.542 3993.52,696.78 4007.28,682.043C4008.45,680.798 4008.38,678.843 4007.14,677.68C4005.89,676.517 4003.94,676.583 4002.77,677.828C3989.18,692.377 3974.49,705.962 3959.2,718.696C3957.89,719.787 3957.71,721.735 3958.8,723.044C3959.89,724.354 3961.84,724.531 3963.15,723.441Z"/>
    </g>
    <g transform="matrix(2.59145,0,0,2.59145,-9184.46,-804.985)">
        <path d="M4135.69,655.333C4139.41,636.451 4143.99,617.227 4150.48,599.081C4151.05,597.477 4150.22,595.708 4148.61,595.134C4147.01,594.561 4145.24,595.397 4144.66,597.002C4138.07,615.435 4133.41,634.961 4129.64,654.142C4129.31,655.813 4130.4,657.438 4132.07,657.766C4133.74,658.095 4135.37,657.005 4135.69,655.333Z"/>
    </g>
    <g transform="matrix(2.59145,0,0,2.59145,-9184.46,-804.985)">
        <path d="M4146.88,599.563C4177.1,602.938 4206.11,608.816 4235.57,616.294C4237.22,616.714 4238.9,615.713 4239.32,614.062C4239.74,612.41 4238.74,610.729 4237.09,610.31C4207.35,602.761 4178.07,596.833 4147.57,593.427C4145.88,593.238 4144.35,594.459 4144.16,596.152C4143.97,597.846 4145.19,599.374 4146.88,599.563Z"/>
    </g>
    <g transform="matrix(2.59145,0,0,2.59145,-9184.46,-804.985)">
        <path d="M4120.59,862.179C4133.26,877.394 4141.56,893.59 4144.76,913.212C4145.03,914.894 4146.62,916.036 4148.31,915.761C4149.99,915.487 4151.13,913.899 4150.85,912.217C4147.47,891.466 4138.73,874.319 4125.33,858.228C4124.24,856.919 4122.29,856.741 4120.98,857.831C4119.67,858.921 4119.5,860.869 4120.59,862.179Z"/>
    </g>
    <g transform="matrix(2.59145,0,0,2.59145,-9184.46,-804.985)">
        <path d="M4154.55,919.794C4206.56,904.802 4259.46,888.764 4314.11,897.747C4315.79,898.023 4317.38,896.883 4317.66,895.201C4317.94,893.52 4316.8,891.931 4315.11,891.655C4259.55,882.52 4205.72,898.617 4152.84,913.862C4151.2,914.333 4150.26,916.046 4150.73,917.683C4151.2,919.32 4152.92,920.266 4154.55,919.794Z"/>
    </g>
    <g transform="matrix(2.59145,0,0,2.59145,-9184.46,-804.985)">
        <path d="M3980.36,980.629C3983.99,965.161 3987.94,949.791 3992.65,934.615C3993.16,932.988 3992.24,931.257 3990.62,930.752C3988.99,930.248 3987.26,931.159 3986.75,932.786C3982,948.1 3978.01,963.61 3974.35,979.219C3973.96,980.877 3974.99,982.54 3976.65,982.929C3978.31,983.318 3979.97,982.288 3980.36,980.629Z"/>
    </g>
    <g transform="matrix(2.59145,0,0,2.59145,-9184.46,-804.985)">
        <path d="M3976.91,985.454C3984.98,992.719 3993.35,999.557 4001.11,1007.18C4002.33,1008.37 4004.28,1008.35 4005.48,1007.13C4006.67,1005.92 4006.65,1003.96 4005.44,1002.77C3997.61,995.089 3989.17,988.19 3981.04,980.865C3979.77,979.725 3977.82,979.828 3976.68,981.094C3975.54,982.36 3975.64,984.314 3976.91,985.454Z"/>
    </g>
    <g transform="matrix(2.59145,0,0,2.59145,-9184.46,-804.985)">
        <path d="M4000.18,1008.62C3998.62,1019.74 3996.82,1030.81 3994.7,1041.83C3994.38,1043.51 3995.48,1045.13 3997.15,1045.45C3998.82,1045.77 4000.44,1044.67 4000.76,1043C4002.9,1031.87 4004.72,1020.7 4006.3,1009.47C4006.53,1007.78 4005.35,1006.22 4003.67,1005.99C4001.98,1005.75 4000.42,1006.93 4000.18,1008.62Z"/>
    </g>
    <g transform="matrix(2.59145,0,0,2.59145,-9184.46,-804.985)">
        <path d="M3996.23,1045.23C4004.19,1052.99 4010.55,1062.27 4015.26,1072.32C4015.98,1073.87 4017.82,1074.53 4019.36,1073.81C4020.91,1073.09 4021.57,1071.25 4020.85,1069.7C4015.83,1058.98 4009.03,1049.08 4000.54,1040.81C3999.32,1039.62 3997.36,1039.64 3996.17,1040.87C3994.98,1042.09 3995.01,1044.04 3996.23,1045.23Z"/>
    </g>
    <g transform="matrix(2.59145,0,0,2.59145,-9184.46,-804.985)">
        <path d="M3805.07,949.501C3818.03,965.618 3830.64,983.324 3847.44,995.715C3848.81,996.726 3850.74,996.434 3851.76,995.063C3852.77,993.692 3852.48,991.757 3851.11,990.746C3834.73,978.668 3822.51,961.342 3809.89,945.632C3808.82,944.305 3806.87,944.093 3805.55,945.161C3804.22,946.228 3804.01,948.173 3805.07,949.501Z"/>
    </g>
    <g transform="matrix(2.59145,0,0,2.59145,-9184.46,-804.985)">
        <path d="M3813.24,950.519C3836.48,943.405 3854.2,927.633 3869.38,909.156C3870.46,907.839 3870.27,905.892 3868.95,904.811C3867.64,903.729 3865.69,903.92 3864.61,905.237C3850.21,922.77 3833.49,937.865 3811.43,944.615C3809.8,945.113 3808.88,946.841 3809.38,948.47C3809.88,950.099 3811.61,951.017 3813.24,950.519Z"/>
    </g>
    <g transform="matrix(2.59145,0,0,2.59145,-9184.46,-804.985)">
        <path d="M4357.13,1111.68C4374.38,1126.74 4392.62,1140.03 4411.84,1152.43C4413.27,1153.35 4415.18,1152.94 4416.1,1151.51C4417.03,1150.08 4416.61,1148.16 4415.18,1147.24C4396.22,1135 4378.22,1121.9 4361.19,1107.03C4359.91,1105.9 4357.96,1106.04 4356.84,1107.32C4355.72,1108.6 4355.85,1110.56 4357.13,1111.68Z"/>
    </g>
    <g transform="matrix(2.59145,0,0,2.59145,-9184.46,-804.985)">
        <path d="M4418.59,1152.7C4441.08,1103.64 4469.36,1053.79 4514.83,1022.59C4516.23,1021.63 4516.59,1019.7 4515.63,1018.3C4514.66,1016.89 4512.74,1016.54 4511.34,1017.5C4464.94,1049.33 4435.93,1100.07 4412.98,1150.13C4412.27,1151.68 4412.95,1153.51 4414.5,1154.22C4416.05,1154.93 4417.89,1154.25 4418.59,1152.7Z"/>
    </g>
    <g transform="matrix(2.59145,0,0,2.59145,-9184.46,-804.985)">
        <path d="M4473.32,1221.39C4478.52,1227.34 4483.6,1233.39 4488.67,1239.44C4489.77,1240.74 4491.71,1240.91 4493.02,1239.82C4494.32,1238.73 4494.5,1236.78 4493.4,1235.47C4488.3,1229.39 4483.2,1223.31 4477.97,1217.33C4476.85,1216.05 4474.9,1215.92 4473.62,1217.04C4472.33,1218.16 4472.2,1220.11 4473.32,1221.39Z"/>
    </g>
    <g transform="matrix(2.59145,0,0,2.59145,-9184.46,-804.985)">
        <path d="M4500.81,1245.43C4506.12,1238 4511.78,1230.84 4517.43,1223.67C4518.48,1222.34 4518.26,1220.39 4516.92,1219.34C4515.58,1218.28 4513.64,1218.51 4512.58,1219.85C4506.87,1227.09 4501.15,1234.33 4495.79,1241.84C4494.8,1243.22 4495.12,1245.15 4496.5,1246.14C4497.89,1247.13 4499.82,1246.81 4500.81,1245.43Z"/>
    </g>
    <g transform="matrix(2.59145,0,0,2.59145,-9184.46,-804.985)">
        <path d="M4524.64,1224.04C4542.5,1221.34 4557.58,1220.52 4571.6,1207.85C4572.87,1206.7 4572.97,1204.75 4571.82,1203.49C4570.68,1202.22 4568.73,1202.12 4567.46,1203.27C4554.44,1215.04 4540.31,1215.43 4523.72,1217.93C4522.04,1218.18 4520.88,1219.76 4521.13,1221.44C4521.39,1223.13 4522.96,1224.29 4524.64,1224.04Z"/>
    </g>
    <g transform="matrix(2.59145,0,0,2.59145,-9184.46,-804.985)">
        <path d="M4391.78,610.896C4404.64,609.821 4417.09,610.185 4429.66,613.316C4431.32,613.727 4432.99,612.719 4433.4,611.066C4433.82,609.413 4432.81,607.736 4431.15,607.325C4417.91,604.028 4404.81,603.611 4391.26,604.744C4389.57,604.885 4388.3,606.379 4388.44,608.077C4388.59,609.775 4390.08,611.038 4391.78,610.896Z"/>
    </g>
    <g transform="matrix(2.59145,0,0,2.59145,-9184.46,-804.985)">
        <path d="M4433.74,612.502C4433.14,623.231 4431.68,633.794 4429.18,644.246C4428.79,645.903 4429.81,647.57 4431.47,647.966C4433.13,648.362 4434.79,647.338 4435.19,645.681C4437.77,634.869 4439.28,623.944 4439.9,612.845C4440,611.144 4438.69,609.686 4436.99,609.591C4435.29,609.496 4433.83,610.801 4433.74,612.502Z"/>
    </g>
    <g transform="matrix(2.59145,0,0,2.59145,-9184.46,-804.985)">
        <path d="M4428.72,652.507C4443.34,661.576 4458.11,670.38 4472.75,679.408C4474.2,680.303 4476.11,679.852 4477,678.402C4477.89,676.951 4477.44,675.048 4475.99,674.153C4461.36,665.128 4446.59,656.327 4431.98,647.26C4430.53,646.362 4428.62,646.809 4427.73,648.256C4426.83,649.704 4427.27,651.609 4428.72,652.507Z"/>
    </g>
    <g transform="matrix(2.59145,0,0,2.59145,-9184.46,-804.985)">
        <path d="M4469.35,679.348C4470.08,685.92 4470.57,692.517 4471.28,699.089C4471.47,700.783 4472.99,702.008 4474.69,701.823C4476.38,701.638 4477.61,700.112 4477.42,698.419C4476.7,691.841 4476.22,685.24 4475.48,678.662C4475.29,676.969 4473.76,675.748 4472.07,675.937C4470.38,676.126 4469.15,677.654 4469.35,679.348Z"/>
    </g>
    <g transform="matrix(2.59145,0,0,2.59145,-9184.46,-804.985)">
        <path d="M4471.74,702.102C4483.63,715.311 4495.54,728.609 4508.04,741.24C4509.24,742.451 4511.19,742.461 4512.41,741.262C4513.62,740.064 4513.63,738.107 4512.43,736.896C4499.99,724.335 4488.15,711.108 4476.32,697.972C4475.19,696.705 4473.23,696.603 4471.97,697.743C4470.7,698.882 4470.6,700.836 4471.74,702.102Z"/>
    </g>
    <g transform="matrix(2.59145,0,0,2.59145,-9184.46,-804.985)">
        <path d="M4072.81,368.231C4109.22,368.231 4145.14,371.184 4181.26,375.716C4182.95,375.928 4184.49,374.728 4184.7,373.037C4184.92,371.347 4183.72,369.802 4182.03,369.59C4145.66,365.026 4109.48,362.056 4072.81,362.056C4071.1,362.056 4069.72,363.44 4069.72,365.144C4069.72,366.847 4071.1,368.231 4072.81,368.231Z"/>
    </g>
    <g transform="matrix(2.59145,0,0,2.59145,-9184.46,-804.985)">
        <path d="M3720.8,860.639C3732.87,847.095 3744.5,833.129 3756.8,819.793C3757.95,818.541 3757.88,816.586 3756.62,815.431C3755.37,814.276 3753.41,814.355 3752.26,815.607C3739.94,828.969 3728.29,842.961 3716.19,856.532C3715.06,857.804 3715.17,859.757 3716.44,860.89C3717.72,862.024 3719.67,861.911 3720.8,860.639Z"/>
    </g>
    <g transform="matrix(2.59145,0,0,2.59145,-9184.46,-804.985)">
        <path d="M3752.06,823.7C3762.53,832.848 3773.55,841.457 3783.65,851.02C3784.89,852.192 3786.84,852.138 3788.01,850.901C3789.19,849.663 3789.13,847.708 3787.89,846.537C3777.73,836.917 3766.66,828.252 3756.12,819.05C3754.84,817.929 3752.89,818.061 3751.77,819.344C3750.64,820.627 3750.78,822.579 3752.06,823.7Z"/>
    </g>
    <g transform="matrix(2.59145,0,0,2.59145,-9184.46,-804.985)">
        <path d="M4572.65,864.409C4592.67,877.431 4612.1,892.957 4629.08,909.832C4630.28,911.033 4632.24,911.028 4633.44,909.819C4634.64,908.611 4634.64,906.655 4633.43,905.454C4616.16,888.284 4596.39,872.484 4576.02,859.234C4574.59,858.304 4572.68,858.709 4571.75,860.138C4570.82,861.566 4571.23,863.479 4572.65,864.409Z"/>
    </g>
    <g transform="matrix(2.59145,0,0,2.59145,-9184.46,-804.985)">
        <path d="M4602.69,891.189C4588,894.981 4573.45,899.085 4559.07,903.925C4557.45,904.469 4556.58,906.221 4557.13,907.836C4557.67,909.451 4559.42,910.32 4561.04,909.777C4575.28,904.984 4589.69,900.922 4604.23,897.167C4605.88,896.741 4606.87,895.056 4606.45,893.406C4606.02,891.756 4604.34,890.763 4602.69,891.189Z"/>
    </g>
    <g transform="matrix(2.59145,0,0,2.59145,-9184.46,-804.985)">
        <path d="M4561.14,902.733C4549.1,896.815 4537.18,890.648 4525.37,884.297C4523.86,883.491 4521.99,884.054 4521.19,885.555C4520.38,887.055 4520.94,888.929 4522.44,889.735C4534.32,896.121 4546.31,902.323 4558.41,908.273C4559.94,909.025 4561.8,908.394 4562.55,906.865C4563.3,905.336 4562.67,903.484 4561.14,902.733Z"/>
    </g>
</svg>
