<?xml version="1.0" encoding="UTF-8" standalone="no"?>
<!DOCTYPE svg PUBLIC "-//W3C//DTD SVG 1.1//EN" "http://www.w3.org/Graphics/SVG/1.1/DTD/svg11.dtd">
<svg width="100%" height="100%" viewBox="0 0 3300 2550" version="1.1" xmlns="http://www.w3.org/2000/svg" xmlns:xlink="http://www.w3.org/1999/xlink" xml:space="preserve" xmlns:serif="http://www.serif.com/" style="fill-rule:evenodd;clip-rule:evenodd;stroke-linejoin:round;stroke-miterlimit:2;">
    <g transform="matrix(1.96132,0,0,1.96132,-8278.11,-2476.89)">
        <path d="M5139.86,1906.86C5110.98,1914.8 5081.18,1913.76 5051.58,1915.18C4996.79,1917.82 4942.01,1918.96 4887.22,1921.96C4774.62,1928.12 4662.08,1928.2 4549.35,1927.62C4484.47,1927.28 4421.18,1921.91 4356.65,1915.72C4329.73,1913.14 4302.75,1912.47 4276.26,1906.5L4276.68,1906.28C4435.95,1844.79 4620.92,1831.05 4790.06,1821.53C4880.87,1816.41 4971.95,1817.73 5061.77,1800.87C5144.12,1785.41 5205.05,1741.78 5276.52,1702.06C5317.8,1679.12 5361.02,1660.79 5403.25,1639.79L5401.59,1638.33C5436.67,1547.46 5483.15,1491.69 5582.87,1471.55C5660.53,1455.86 5740.43,1519.88 5698.85,1602.09C5644.68,1709.21 5463.53,1687.7 5367.91,1715.37C5268.04,1744.28 5207.26,1829.3 5141.74,1903.25L5139.86,1906.86ZM5488.12,1639.03C5478.78,1615.8 5472.55,1595.37 5479.9,1570.12C5497.79,1508.69 5599.95,1482.77 5642.9,1529.35C5717.82,1610.59 5567.25,1679.04 5488.12,1639.03ZM5488.12,1639.03C5488.46,1639.88 5488.8,1640.73 5489.15,1641.58L5483.66,1636.62C5485.12,1637.47 5486.61,1638.27 5488.12,1639.03Z" style="fill:rgb(220,209,255);"/>
        <path d="M5397.52,1638.08C5356.48,1658.3 5314.6,1676.23 5274.54,1698.49C5203.46,1737.99 5142.91,1781.49 5061.02,1796.86C4971.37,1813.69 4880.47,1812.35 4789.83,1817.45C4620.28,1827 4434.87,1840.83 4275.21,1902.48C4275.07,1902.53 4274.93,1902.6 4274.79,1902.67C4274.41,1902.87 4274.36,1902.89 4274.36,1902.89C4274.36,1902.89 4276.26,1910.58 4276.26,1910.58C4275.95,1910.58 4275.65,1910.55 4275.36,1910.48C4302.02,1916.49 4329.17,1917.18 4356.27,1919.78C4420.91,1925.98 4484.32,1931.36 4549.33,1931.69C4662.14,1932.28 4774.76,1932.2 4887.45,1926.03C4942.23,1923.03 4996.99,1921.9 5051.78,1919.26C5081.68,1917.82 5111.77,1918.81 5140.94,1910.79C5142.03,1910.49 5142.95,1909.75 5143.48,1908.75L5145.13,1905.58C5210.02,1832.28 5270.1,1747.93 5369.05,1719.29C5426.4,1702.69 5514.53,1703.8 5587.55,1684.21C5637.43,1670.83 5680.3,1647.82 5702.49,1603.93C5719.89,1569.52 5716.81,1538.16 5701.82,1513.96C5679.53,1477.97 5630.41,1457.79 5582.06,1467.55C5480.75,1488.02 5433.43,1544.54 5397.78,1636.86C5397.63,1637.26 5397.54,1637.67 5397.52,1638.08ZM4291.12,1905.2C4447.02,1848.01 4626.14,1834.84 4790.29,1825.6C4881.28,1820.48 4972.53,1821.77 5062.52,1804.88C5145.32,1789.33 5206.64,1745.56 5278.5,1705.62C5319.73,1682.71 5362.89,1664.41 5405.07,1643.45L5403.25,1643.87C5403.25,1643.87 5411.19,1641.9 5406.41,1637.17C5440.82,1549.3 5486.5,1495.18 5583.67,1475.55C5628.52,1466.49 5674.21,1484.87 5694.89,1518.26C5708.55,1540.31 5711.07,1568.89 5695.21,1600.25C5674.07,1642.06 5632.96,1663.58 5585.44,1676.33C5512.36,1695.94 5424.17,1694.84 5366.78,1711.45C5266.14,1740.59 5204.71,1826.03 5138.69,1900.55C5138.47,1900.8 5138.28,1901.07 5138.13,1901.37L5137.07,1903.38C5109.02,1910.74 5080.11,1909.73 5051.38,1911.11C4996.58,1913.75 4941.8,1914.89 4887,1917.88C4774.48,1924.04 4662.02,1924.12 4549.37,1923.54C4484.61,1923.2 4421.44,1917.84 4357.04,1911.66C4335.01,1909.55 4312.94,1908.74 4291.12,1905.2ZM5481.46,1633.18C5481.05,1633.45 5480.67,1633.8 5480.36,1634.22C5479.14,1635.9 5479.38,1638.24 5480.93,1639.64L5486.42,1644.61C5487.78,1645.84 5489.78,1646 5491.32,1645.04C5540.22,1666.33 5611.78,1650.78 5646.4,1617.52C5658.8,1605.6 5666.52,1591.45 5667.24,1575.98C5667.96,1560.63 5661.81,1543.84 5645.9,1526.58C5623.46,1502.26 5585.63,1496.57 5551.01,1505.28C5516.44,1513.97 5485.31,1536.95 5475.98,1568.98C5469.14,1592.49 5473.49,1612 5481.46,1633.18ZM5491.33,1636.07C5482.66,1614.32 5476.9,1595.02 5483.82,1571.27C5492.38,1541.87 5521.27,1521.17 5552.99,1513.19C5584.66,1505.23 5619.38,1509.87 5639.9,1532.11C5653.95,1547.36 5659.73,1562.04 5659.09,1575.6C5658.13,1596.04 5642.8,1613.55 5621.22,1626.13C5584.59,1647.51 5529.7,1654.65 5491.33,1636.07L5491.33,1636.07Z"/>
    </g>
    <g transform="matrix(1.96132,0,0,1.96132,-8278.11,-2476.89)">
        <path d="M4569.91,1284.42C4600.65,1332.3 4628.52,1382.48 4661.25,1428.99C4711.99,1501.09 4768.76,1568.91 4816.94,1642.85C4919.93,1800.88 5012.97,1967.06 5134.77,2111.63L5137.27,2114.8C5151.47,2119.83 5178.57,2121.29 5189.79,2131.89C5217.1,2157.68 5155.92,2239.41 5172.07,2288.12C5178.16,2306.48 5191.24,2322.15 5200.76,2338.77C5243.32,2413.1 5274.55,2448.87 5346.89,2496.87C5371.55,2513.23 5395.55,2530.24 5423.97,2539.51C5542.18,2578.03 5701.7,2503.49 5598.76,2369.3C5550.18,2305.97 5468.89,2249.67 5406.11,2201.93C5381.41,2183.14 5365.58,2155.4 5340.62,2136.2C5276.32,2086.73 5199.01,2051.29 5127.27,2013.98L5126.83,2020.53C5123.25,1986.83 5122.87,1952.75 5120.99,1918.92L5115.44,1918.85C5000.82,1699.3 4825.46,1523.54 4691.25,1317.29L4686.96,1316.06C4650.2,1302.02 4612.44,1291.29 4574.97,1279.37L4569.91,1284.42ZM5254.57,2171.43C5126.82,2313.34 5415.99,2572.42 5542.69,2499.28C5584.82,2474.95 5575.72,2420.53 5547.79,2388.6C5517.01,2353.4 5474.99,2329.67 5442.17,2296.26C5380.23,2233.17 5362.93,2139.97 5248.6,2167.18L5254.57,2171.43Z" style="fill:rgb(220,209,255);"/>
        <path d="M5131.6,2114.2L5134.07,2117.33C5134.55,2117.93 5135.19,2118.39 5135.91,2118.65C5144.5,2121.69 5157.77,2123.46 5169.46,2126.68C5176.48,2128.61 5182.91,2131.01 5186.99,2134.85C5191.64,2139.25 5193.05,2145.63 5192.81,2153.23C5192.53,2161.85 5190.07,2171.94 5186.79,2182.82C5180.65,2203.22 5171.64,2226.27 5167.51,2247.8C5164.63,2262.81 5164.12,2277.11 5168.2,2289.41C5174.38,2308.01 5187.57,2323.95 5197.22,2340.8C5240.15,2415.77 5271.67,2451.85 5344.64,2500.26C5369.61,2516.83 5393.93,2534.01 5422.71,2543.39C5473.36,2559.89 5531.45,2556.01 5574.02,2535.85C5602.96,2522.15 5624.73,2500.93 5632.66,2473.66C5641.1,2444.62 5633.93,2408.45 5602,2366.82C5553.21,2303.22 5471.63,2246.63 5408.58,2198.68C5383.89,2179.9 5368.06,2152.16 5343.11,2132.97C5278.86,2083.54 5201.69,2048.05 5129.97,2010.79C5127.23,1980.2 5126.77,1949.35 5125.07,1918.69C5124.94,1916.55 5123.19,1914.87 5121.04,1914.84L5117.92,1914.81C5003.22,1696.13 4828.5,1520.75 4694.67,1315.06C4694.14,1314.24 4693.32,1313.63 4692.37,1313.36L4688.25,1312.18C4651.47,1298.15 4613.7,1287.41 4576.21,1275.48C4574.75,1275.02 4573.16,1275.41 4572.09,1276.48L4567.03,1281.54C4565.67,1282.9 4565.45,1285.01 4566.48,1286.63C4597.25,1334.55 4625.15,1384.78 4657.91,1431.33C4708.63,1503.39 4765.37,1571.17 4813.53,1645.07C4916.59,1803.24 5009.73,1969.53 5131.6,2114.2ZM5130.92,2020.47C5200.88,2056.62 5275.67,2091.37 5338.14,2139.43C5363.1,2158.63 5378.94,2186.38 5403.64,2205.17C5466.16,2252.72 5547.15,2308.72 5595.53,2371.79C5625.35,2410.67 5632.71,2444.26 5624.83,2471.38C5617.52,2496.52 5597.2,2515.85 5570.52,2528.48C5529.65,2547.83 5473.88,2551.48 5425.24,2535.63C5397.16,2526.48 5373.5,2509.62 5349.15,2493.47C5277.44,2445.89 5246.49,2410.42 5204.3,2336.74C5194.92,2320.36 5181.95,2304.94 5175.95,2286.84C5172.27,2275.76 5172.92,2262.87 5175.52,2249.34C5179.61,2228.08 5188.54,2205.32 5194.61,2185.17C5198.84,2171.1 5201.66,2158.23 5200.85,2147.88C5200.24,2140.16 5197.68,2133.73 5192.59,2128.92C5187.69,2124.29 5180.07,2121.14 5171.63,2118.81C5160.62,2115.78 5148.18,2114.09 5139.73,2111.33C5139.73,2111.33 5137.97,2109.11 5137.97,2109.11C5137.85,2108.95 5137.74,2108.82 5137.63,2108.69C5016.07,1964.33 4923.18,1798.41 4820.36,1640.62C4772.15,1566.64 4715.36,1498.78 4664.58,1426.64C4632.51,1381.07 4605.13,1331.98 4575.12,1284.99L4575.12,1284.99L4576.1,1284.01C4612.72,1295.61 4649.59,1306.16 4685.51,1319.87L4686.96,1320.14C4686.96,1320.14 4685.85,1319.98 4685.85,1319.98C4685.85,1319.98 4688.67,1320.79 4688.67,1320.79C4822.69,1526.38 4997.5,1701.75 5111.82,1920.74C5112.53,1922.09 5113.92,1922.93 5115.44,1922.93C5115.44,1922.93 5115.44,1922.93 5117.12,1922.95C5118.84,1955.6 5119.32,1988.46 5122.77,2020.96C5122.99,2023.07 5124.79,2024.65 5126.9,2024.61C5129.02,2024.57 5130.75,2022.91 5130.9,2020.8L5130.92,2020.47ZM5248.53,2172.14C5187.52,2244.44 5227.7,2345.05 5300.3,2418.86C5344.15,2463.44 5399.63,2498.16 5450.82,2510.85C5485.65,2519.48 5518.54,2517.93 5544.73,2502.81C5589.24,2477.11 5580.36,2419.65 5550.86,2385.91C5520.03,2350.66 5477.95,2326.87 5445.09,2293.4C5420.42,2268.28 5402.89,2238.35 5383.43,2213.23C5368.34,2193.76 5352.07,2177.15 5330.82,2167.43C5309.48,2157.67 5283.08,2154.78 5247.65,2163.21C5246.1,2163.58 5244.9,2164.82 5244.6,2166.39C5244.29,2167.97 5244.93,2169.57 5246.23,2170.5L5248.53,2172.14ZM5258.05,2169.31C5287,2163.73 5309.19,2166.51 5327.43,2174.85C5347.49,2184.02 5362.73,2199.85 5376.98,2218.23C5396.63,2243.59 5414.37,2273.76 5439.26,2299.12C5472.02,2332.48 5513.99,2356.15 5544.72,2391.28C5571.07,2421.41 5580.4,2472.79 5540.65,2495.74C5516.15,2509.89 5485.36,2511.01 5452.79,2502.93C5402.88,2490.56 5348.86,2456.6 5306.12,2413.14C5270.56,2376.99 5242.78,2334.26 5231.82,2291.79C5221.04,2250.03 5226.65,2208.53 5257.6,2174.16C5258.37,2173.29 5258.75,2172.14 5258.62,2170.98C5258.55,2170.38 5258.36,2169.81 5258.05,2169.31ZM5130.25,2013.79L5130.38,2015.15L5131.34,2014.26L5131.34,2014.28C5131.43,2013.02 5130.92,2011.78 5129.99,2010.94L5130.25,2013.79Z"/>
    </g>
</svg>
